<?xml version="1.0" encoding="UTF-8"?>
<svg width="42px" height="37px" viewBox="0 0 42 37" version="1.1" xmlns="http://www.w3.org/2000/svg" xmlns:xlink="http://www.w3.org/1999/xlink">
    <!-- Generator: Sketch 50.2 (55047) - http://www.bohemiancoding.com/sketch -->
    <title>analysis</title>
    <desc>Created with Sketch.</desc>
    <defs></defs>
    <g id="Page-1" stroke="none" stroke-width="1" fill="none" fill-rule="evenodd">
        <g id="Analysis" fill="#051940" fill-rule="nonzero">
            <g id="Group">
                <path d="M38.5864839,0.167160714 L3.6296129,0.167160714 C1.26203226,0.167160714 0.276387097,1.1285 0.276387097,3.40267857 L0.276387097,27.4434286 C0.276387097,29.715625 1.22612903,30.6604464 3.51987097,30.6604464 L16.5256452,30.6604464 L16.5256452,32.1358214 C16.5256452,32.8493929 16.0412903,33.4374286 15.4383871,33.8959643 C15.0089032,34.225 14.5170968,34.4912679 14.0943871,34.6901429 C13.6953871,34.8698571 13.272,35.0370179 12.8499677,35.1605714 C12.5322581,35.2537321 12.3168387,35.543125 12.3107419,35.866875 C12.3093871,35.9375714 12.3087097,35.9851429 12.3087097,35.9851429 C12.3087097,36.4535893 12.6982258,36.8328393 13.1778387,36.8328393 L28.7957419,36.8328393 C29.2760323,36.8328393 29.664871,36.4529286 29.664871,35.9851429 L29.664871,35.9435179 C29.664871,35.5748393 29.421,35.247125 29.0599355,35.1374464 C28.6643226,35.0165357 28.2795484,34.858625 27.9049355,34.6908036 C27.4727419,34.4919286 26.9809355,34.2276429 26.5534839,33.896625 C25.9505806,33.4380893 25.473,32.8500536 25.473,32.1364821 L25.473,30.6611071 L38.5858065,30.6611071 C40.7535484,30.6611071 41.7229355,29.6654107 41.7229355,27.5319643 L41.7229355,3.19191071 C41.7236129,1.18135714 40.6830968,0.167160714 38.5864839,0.167160714 Z M37.5276774,23.684625 C26.5399355,23.666125 15.5501613,23.666125 4.57935484,23.666125 C3.44874194,23.666125 3.41351613,23.6311071 3.41351613,22.5475357 L3.41351613,5.01019643 C3.41351613,3.76871429 3.41351613,3.75285714 4.79341935,3.75285714 L37.3854194,3.75285714 C38.5512581,3.75285714 38.6034194,3.787875 38.6034194,4.83708929 C38.6034194,10.7821964 38.5864839,16.7094643 38.6223871,22.6175714 C38.6223871,23.4044821 38.4062903,23.684625 37.5276774,23.684625 Z" id="Shape"></path>
                <path d="M33.272129,8.71217857 C32.6218065,8.71217857 32.0487097,9.02733929 31.7005161,9.509 C31.1226774,9.50966071 30.5400968,9.50767857 29.9656452,9.49644643 C29.198129,9.48191071 28.635871,9.81953571 28.2917419,10.4980893 C27.2193871,12.6130357 26.115871,14.758375 25.0489355,16.8336786 L24.2936129,18.3024464 C24.221129,18.4438393 24.1676129,18.5218036 24.1357742,18.5621071 C24.129,18.5614464 24.1222258,18.5607857 24.1140968,18.560125 C24.1120645,18.560125 24.1100323,18.5594643 24.108,18.5594643 C24.087,18.5264286 24.0456774,18.4511071 23.9921613,18.2925357 C23.0342903,15.4693036 21.243871,10.27675 20.588129,8.39107143 C20.3957419,7.83739286 19.8849677,7.45351786 19.2874839,7.41321429 C18.6893226,7.37291071 18.1290968,7.68476786 17.8608387,8.20739286 L17.7571935,8.40957143 C17.3487097,9.20441071 16.9517419,9.97744643 16.5547742,10.7504821 C16.3535806,11.1429464 16.1530645,11.5354107 15.951871,11.9285357 C15.624,12.5700893 15.296129,13.2123036 14.9655484,13.8525357 C14.9174516,13.9456964 14.880871,13.999875 14.8578387,14.0289464 C14.847,14.0282857 14.8334516,14.027625 14.8171935,14.0263036 C14.8138065,14.0263036 14.8104194,14.0256429 14.8077097,14.0249821 C14.792129,13.999875 14.7657097,13.949 14.7352258,13.8584821 C14.3213226,12.6209643 13.4935161,10.2437143 13.1656452,9.31607143 C13.0078065,8.86810714 12.6135484,8.53246429 12.1373226,8.43996429 C11.6610968,8.34746429 11.1652258,8.51 10.8400645,8.86810714 C10.6571613,9.069625 10.4993226,9.24339286 10.3516452,9.35439286 C10.2324194,9.44358929 10.0962581,9.48851786 10.0535806,9.49116071 C9.50893548,9.52882143 8.95209677,9.51891071 8.36206452,9.50833929 C8.21777419,9.50569643 8.07348387,9.50305357 7.92919355,9.50173214 C7.31477419,9.49644643 6.81348387,9.97216071 6.80535484,10.5694464 C6.79722581,11.1667321 7.28767742,11.6576429 7.90006452,11.6655714 C8.04096774,11.6675536 8.18119355,11.6695357 8.32209677,11.6721786 C8.93380645,11.68275 9.56719355,11.6939821 10.2100645,11.6497143 C10.6354839,11.6206429 11.0886774,11.465375 11.4876774,11.2176071 C11.8643226,12.2985357 12.3432581,13.6840536 12.6264194,14.5297679 C13.0450645,15.7811607 13.9351935,16.1174643 14.607871,16.1802321 C15.6463548,16.2760357 16.4341935,15.8201429 16.9476774,14.8244464 C17.2796129,14.1815714 17.6081613,13.537375 17.9373871,12.8931786 C18.1379032,12.501375 18.3377419,12.1095714 18.5389355,11.7177679 C18.7096452,11.3847679 18.8803548,11.0517679 19.0524194,10.7174464 C19.8775161,13.1052679 21.1368387,16.7643036 21.8860645,18.97175 C22.2444194,20.0275714 22.9164194,20.6129643 23.8837742,20.7120714 C23.9813226,20.7219821 24.074129,20.7266071 24.1642258,20.7266071 C25.5299032,20.7266071 26.0867419,19.6430357 26.2777742,19.2717143 L27.0324194,17.8036071 C28.0661613,15.7937143 29.1344516,13.7170893 30.1763226,11.6635893 C30.6877742,11.6708571 31.1999032,11.6728393 31.7072903,11.6721786 C32.0561613,12.1492143 32.6265484,12.4610714 33.2728065,12.4610714 C34.3343226,12.4610714 35.1953226,11.6213036 35.1953226,10.5859643 C35.1953226,9.55128571 34.3343226,8.71217857 33.272129,8.71217857 Z" id="Shape"></path>
            </g>
        </g>
    </g>
</svg>