<?xml version="1.0" encoding="UTF-8"?>
<svg width="27px" height="19px" viewBox="0 0 27 19" version="1.1" xmlns="http://www.w3.org/2000/svg" xmlns:xlink="http://www.w3.org/1999/xlink">
    <!-- Generator: Sketch 50.2 (55047) - http://www.bohemiancoding.com/sketch -->
    <title>attach</title>
    <desc>Created with Sketch.</desc>
    <defs></defs>
    <g id="Page-1" stroke="none" stroke-width="1" fill="none" fill-rule="evenodd">
        <g id="Similar" fill="#2A5C93" fill-rule="nonzero">
            <path d="M9.54545455,19 C10.9431818,19 12.3068182,18.6946429 13.5,18.1517857 C14.6931818,18.6946429 16.0568182,19 17.4545455,19 C22.7045455,19 27,14.7589286 27,9.5 C27,4.275 22.7386364,0 17.4545455,0 C16.0568182,0 14.6931818,0.305357143 13.5,0.848214286 C12.3068182,0.305357143 10.9431818,0 9.54545455,0 C4.29545455,0 0,4.24107143 0,9.5 C3.02788098e-15,14.725 4.29545455,19 9.54545455,19 Z M11.0113636,9.5 C11.0113636,7.46428571 12,5.63214286 13.5,4.44464286 C15,5.63214286 15.9886364,7.43035714 15.9886364,9.5 C15.9886364,11.5696429 15,13.3678571 13.5,14.5553571 C12,13.3678571 11.0113636,11.5357143 11.0113636,9.5 Z M23.8977273,9.5 C23.8977273,13.0285714 21,15.9125 17.4545455,15.9125 C17.1818182,15.9125 16.9090909,15.8785714 16.6363636,15.8446429 C18.1704545,14.1482143 19.0909091,11.9428571 19.0909091,9.5 C19.0909091,7.05714286 18.1704545,4.85178571 16.6363636,3.15535714 C16.9090909,3.12142857 17.1818182,3.0875 17.4545455,3.0875 C21,3.0875 23.8977273,5.97142857 23.8977273,9.5 Z M9.54545455,3.0875 C9.81818182,3.0875 10.0909091,3.12142857 10.3636364,3.15535714 C8.82954545,4.85178571 7.90909091,7.05714286 7.90909091,9.5 C7.90909091,11.9428571 8.82954545,14.1482143 10.3636364,15.8446429 C10.0909091,15.8785714 9.81818182,15.9125 9.54545455,15.9125 C6,15.9125 3.10227273,13.0285714 3.10227273,9.5 C3.10227273,5.97142857 6,3.0875 9.54545455,3.0875 Z" id="Shape"></path>
        </g>
    </g>
</svg>