<?xml version="1.0" encoding="UTF-8"?>
<svg width="61px" height="57px" viewBox="0 0 61 57" version="1.1" xmlns="http://www.w3.org/2000/svg" xmlns:xlink="http://www.w3.org/1999/xlink">
    <!-- Generator: Sketch 50.2 (55047) - http://www.bohemiancoding.com/sketch -->
    <title>d1</title>
    <desc>Created with Sketch.</desc>
    <defs>
        <linearGradient x1="3.76362418%" y1="3.76362418%" x2="97.2572992%" y2="97.2572992%" id="linearGradient-1">
            <stop stop-color="#A0D468" offset="0%"></stop>
            <stop stop-color="#6EAF27" offset="100%"></stop>
        </linearGradient>
        <rect id="path-2" x="0" y="0" width="61" height="57" rx="6"></rect>
        <filter x="-3.3%" y="-3.5%" width="106.6%" height="107.0%" filterUnits="objectBoundingBox" id="filter-3">
            <feGaussianBlur stdDeviation="1.5" in="SourceAlpha" result="shadowBlurInner1"></feGaussianBlur>
            <feOffset dx="0" dy="1" in="shadowBlurInner1" result="shadowOffsetInner1"></feOffset>
            <feComposite in="shadowOffsetInner1" in2="SourceAlpha" operator="arithmetic" k2="-1" k3="1" result="shadowInnerInner1"></feComposite>
            <feColorMatrix values="0 0 0 0 0   0 0 0 0 0   0 0 0 0 0  0 0 0 0.5 0" type="matrix" in="shadowInnerInner1"></feColorMatrix>
        </filter>
    </defs>
    <g id="Page-1" stroke="none" stroke-width="1" fill="none" fill-rule="evenodd">
        <g id="Rectangle-14">
            <use fill="url(#linearGradient-1)" fill-rule="evenodd" xlink:href="#path-2"></use>
            <use fill="black" fill-opacity="1" filter="url(#filter-3)" xlink:href="#path-2"></use>
        </g>
        <path d="M40.4295462,22.5652591 L33.6952293,22.5652591 C33.1995657,22.5664525 32.7179987,22.4079841 32.3285491,22.115528 L29.1612676,19.7299982 C28.5330938,19.2581689 27.7570595,19.001108 26.9574957,19 L22.5567853,19 C20.5918745,19.0017986 18.9999991,20.5216212 19,22.3957952 L19,35.607459 C19.0018795,37.4790901 20.5911255,38.9964037 22.5533686,38.9999953 L39.2952016,38.9999953 C40.5417707,39.001725 41.7379543,38.5308304 42.6203734,37.6909943 C43.5027925,36.8511582 43.9990931,35.7112431 43.9999983,34.5222385 L43.9999983,25.9643132 C44.0009107,25.0614312 43.6248132,24.1953739 42.9548285,23.5575515 C42.2848437,22.919729 41.3761376,22.5626592 40.4295462,22.5652591 Z M39.2917849,37.696427 C37.455653,37.6892346 35.9725758,36.2649329 35.9775978,34.5135837 C35.9826197,32.7622344 37.4738429,31.3456919 39.3099886,31.3480796 C41.1461343,31.3504672 42.6333026,32.7708827 42.6333181,34.5222385 C42.6324149,35.3660817 42.2796344,36.174925 41.6527777,36.7703886 C41.0259209,37.3658523 40.176479,37.6990239 39.2917849,37.696427 Z M42.6333181,31.3676034 C41.448048,30.2347393 39.7191766,29.7910632 38.0979532,30.2037036 C36.4767298,30.616344 35.2094568,31.822611 34.7735035,33.3681155 C34.3375503,34.9136199 34.7991485,36.563563 35.9844187,37.696427 L25.3687299,37.696427 C25.872663,37.0937228 26.1473011,36.3457706 26.1477377,35.5748698 L26.1477377,29.2232337 C26.149619,28.0702726 27.1290613,27.1360601 28.3378428,27.1342656 L40.4295462,27.1342656 C41.0124867,27.1316667 41.5725354,27.3505019 41.9860212,27.7424474 C42.3995069,28.134393 42.6324165,28.6672075 42.6333181,29.2232337 L42.6333181,31.3676034 Z M42.6333181,26.5672135 C42.0092208,26.0982314 41.237728,25.8433761 40.443213,25.8437331 L28.3378428,25.8437331 C26.3795828,25.8455041 24.7904532,27.3554251 24.7810574,29.2232337 L24.7810574,35.5716109 C24.7810589,36.7438429 23.7857694,37.6946291 22.5567853,37.696427 C21.3480038,37.6946325 20.3685616,36.7604201 20.3666802,35.607459 L20.3666802,22.3957952 C20.3685616,21.2428341 21.3480038,20.3086216 22.5567853,20.3068271 L26.9643291,20.3068271 C27.4599927,20.3056337 27.9415597,20.4641021 28.3310094,20.7565582 L31.4982908,23.142088 C32.1264646,23.6139172 32.902499,23.8709782 33.7020627,23.8720862 L40.4295462,23.8720862 C41.0130783,23.8694853 41.573646,24.088767 41.9872307,24.4814179 C42.4008154,24.8740688 42.6333245,25.407722 42.6333181,25.9643132 L42.6333181,26.5672135 Z" id="Shape" fill="#FFFFFF" fill-rule="nonzero"></path>
    </g>
</svg>