<?xml version="1.0" encoding="UTF-8"?>
<svg width="61px" height="57px" viewBox="0 0 61 57" version="1.1" xmlns="http://www.w3.org/2000/svg" xmlns:xlink="http://www.w3.org/1999/xlink">
    <!-- Generator: Sketch 50.2 (55047) - http://www.bohemiancoding.com/sketch -->
    <title>d4</title>
    <desc>Created with Sketch.</desc>
    <defs>
        <linearGradient x1="3.34867885%" y1="3.34867885%" x2="97.8406782%" y2="97.8406782%" id="linearGradient-1">
            <stop stop-color="#FC6E51" offset="0%"></stop>
            <stop stop-color="#DB391F" offset="100%"></stop>
        </linearGradient>
        <rect id="path-2" x="0" y="0" width="61" height="57" rx="6"></rect>
        <filter x="-3.3%" y="-3.5%" width="106.6%" height="107.0%" filterUnits="objectBoundingBox" id="filter-3">
            <feGaussianBlur stdDeviation="1.5" in="SourceAlpha" result="shadowBlurInner1"></feGaussianBlur>
            <feOffset dx="0" dy="1" in="shadowBlurInner1" result="shadowOffsetInner1"></feOffset>
            <feComposite in="shadowOffsetInner1" in2="SourceAlpha" operator="arithmetic" k2="-1" k3="1" result="shadowInnerInner1"></feComposite>
            <feColorMatrix values="0 0 0 0 0   0 0 0 0 0   0 0 0 0 0  0 0 0 0.5 0" type="matrix" in="shadowInnerInner1"></feColorMatrix>
        </filter>
    </defs>
    <g id="Page-1" stroke="none" stroke-width="1" fill="none" fill-rule="evenodd">
        <g id="Rectangle-14-Copy-10">
            <use fill="url(#linearGradient-1)" fill-rule="evenodd" xlink:href="#path-2"></use>
            <use fill="black" fill-opacity="1" filter="url(#filter-3)" xlink:href="#path-2"></use>
        </g>
        <path d="M40.1666667,21.3846154 L35.1666667,21.3846154 L35.1666667,20.5384615 C35.1666667,19.1 34.0833333,18 32.6666667,18 L29.3333333,18 C27.9166667,18 26.8333333,19.1 26.8333333,20.5384615 L26.8333333,21.3846154 L21.8333333,21.3846154 C21.3333333,21.3846154 21,21.7230769 21,22.2307692 C21,22.7384615 21.3333333,23.0769231 21.8333333,23.0769231 L22.6666667,23.0769231 L22.6666667,35.7692308 C22.6666667,38.1384615 24.5,40 26.8333333,40 L35.1666667,40 C37.5,40 39.3333333,38.1384615 39.3333333,35.7692308 L39.3333333,23.0769231 L40.1666667,23.0769231 C40.6666667,23.0769231 41,22.7384615 41,22.2307692 C41,21.7230769 40.6666667,21.3846154 40.1666667,21.3846154 Z M28.5,20.5384615 C28.5,20.0307692 28.8333333,19.6923077 29.3333333,19.6923077 L32.6666667,19.6923077 C33.1666667,19.6923077 33.5,20.0307692 33.5,20.5384615 L33.5,21.3846154 L28.5,21.3846154 L28.5,20.5384615 Z M37.6666667,35.7692308 C37.6666667,37.2076923 36.5833333,38.3076923 35.1666667,38.3076923 L26.8333333,38.3076923 C25.4166667,38.3076923 24.3333333,37.2076923 24.3333333,35.7692308 L24.3333333,23.0769231 L37.6666667,23.0769231 L37.6666667,35.7692308 Z M30.1666667,34.0769231 L30.1666667,27.3076923 C30.1666667,26.8 30.5,26.4615385 31,26.4615385 C31.5,26.4615385 31.8333333,26.8 31.8333333,27.3076923 L31.8333333,34.0769231 C31.8333333,34.5846154 31.5,34.9230769 31,34.9230769 C30.5,34.9230769 30.1666667,34.5846154 30.1666667,34.0769231 Z M27.6666667,26.4615385 C28.1666667,26.4615385 28.5,26.8 28.5,27.3076923 L28.5,34.0769231 C28.5,34.5846154 28.1666667,34.9230769 27.6666667,34.9230769 C27.1666667,34.9230769 26.8333333,34.5846154 26.8333333,34.0769231 L26.8333333,27.3076923 C26.8333333,26.8 27.1666667,26.4615385 27.6666667,26.4615385 Z M33.5,34.0769231 L33.5,27.3076923 C33.5,26.8 33.8333333,26.4615385 34.3333333,26.4615385 C34.8333333,26.4615385 35.1666667,26.8 35.1666667,27.3076923 L35.1666667,34.0769231 C35.1666667,34.5846154 34.8333333,34.9230769 34.3333333,34.9230769 C33.8333333,34.9230769 33.5,34.5846154 33.5,34.0769231 Z" id="Shape" fill="#FFFFFF" fill-rule="nonzero"></path>
    </g>
</svg>