<?xml version="1.0" encoding="UTF-8"?>
<svg width="33px" height="41px" viewBox="0 0 33 41" version="1.1" xmlns="http://www.w3.org/2000/svg" xmlns:xlink="http://www.w3.org/1999/xlink">
    <!-- Generator: Sketch 50.2 (55047) - http://www.bohemiancoding.com/sketch -->
    <title>docwhite</title>
    <desc>Created with Sketch.</desc>
    <defs></defs>
    <g id="Page-1" stroke="none" stroke-width="1" fill="none" fill-rule="evenodd">
        <g id="Documents" transform="translate(1.000000, 1.000000)" fill="#FFFFFF" fill-rule="nonzero" stroke="#FFFFFF">
            <path d="M4.68712575,39 L26.4056886,39 C28.9580838,39 31,36.9107143 31,34.4035714 L31,9.51785714 C31,9.47142857 31,9.37857143 31,9.33214286 C31,9.33214286 31,9.33214286 31,9.33214286 C31,9.23928571 30.9535928,9.19285714 30.9071856,9.14642857 C30.9071856,9.14642857 30.9071856,9.1 30.8607784,9.1 C30.8143713,9.05357143 30.7679641,8.96071429 30.7215569,8.91428571 C30.7215569,8.91428571 30.7215569,8.91428571 30.7215569,8.91428571 L21.7185629,0.278571429 C21.7185629,0.278571429 21.7185629,0.278571429 21.7185629,0.278571429 C21.6721557,0.232142857 21.6257485,0.185714286 21.5329341,0.139285714 C21.5329341,0.139285714 21.4865269,0.139285714 21.4865269,0.0928571429 C21.4401198,0.0464285714 21.3473054,0.0464285714 21.254491,0 C21.254491,0 21.254491,0 21.2080838,0 C21.1616766,0 21.1152695,0 21.0688623,0 L4.59431138,0 C2.04191617,0 0,2.08928571 0,4.59642857 L0,34.4035714 C0.0928143713,36.9571429 2.13473054,39 4.68712575,39 Z M21.997006,2.925 L27.9371257,8.63571429 L24.8278443,8.63571429 C23.25,8.63571429 21.9505988,7.33571429 21.9505988,5.75714286 L21.9505988,2.925 L21.997006,2.925 Z M1.80988024,4.59642857 C1.80988024,3.01785714 3.10928144,1.71785714 4.68712575,1.71785714 L20.2799401,1.71785714 L20.2799401,5.75714286 C20.2799401,8.31071429 22.3682635,10.3535714 24.8742515,10.3535714 L29.2365269,10.3535714 L29.2365269,34.3571429 C29.2365269,35.9357143 27.9371257,37.2357143 26.3592814,37.2357143 L4.64071856,37.2357143 C3.06287425,37.2357143 1.76347305,35.9357143 1.76347305,34.3571429 L1.76347305,4.59642857 L1.80988024,4.59642857 Z M9.3742515,20.3821429 C9.46706587,20.3821429 9.51347305,20.3821429 9.60628743,20.3357143 C12.7155689,19.5464286 14.0149701,18.4785714 14.5254491,17.6892857 C14.8038922,17.7357143 15.1287425,17.7821429 15.4071856,17.7821429 C15.4071856,17.7821429 15.4535928,17.7821429 15.4535928,17.7821429 C15.4535928,17.7821429 15.4535928,17.7821429 15.5,17.7821429 C15.5,17.7821429 15.5464072,17.7821429 15.5464072,17.7821429 C15.9176647,17.7821429 16.242515,17.7357143 16.5673653,17.6428571 C17.0778443,18.4785714 18.3772455,19.5464286 21.4865269,20.3357143 C21.5793413,20.3357143 21.6257485,20.3821429 21.7185629,20.3821429 C22.0898204,20.3821429 22.4610778,20.1035714 22.5538922,19.7321429 C22.6931138,19.2678571 22.3682635,18.8035714 21.9041916,18.6642857 C19.5374251,18.0607143 18.4700599,17.3178571 18.0988024,16.8535714 C18.238024,16.7142857 18.3772455,16.575 18.5164671,16.4357143 C20.0943114,14.625 19.8622754,11.6071429 19.8158683,11.2821429 C19.6302395,7.66071429 16.9850299,6.77857143 15.4071856,6.825 C13.8293413,6.77857143 11.1841317,7.66071429 10.998503,11.2821429 C10.9520958,11.6535714 10.7200599,14.6714286 12.2979042,16.4357143 C12.4371257,16.6214286 12.6227545,16.7607143 12.8083832,16.9 C12.4371257,17.3178571 11.4625749,18.0142857 9.0494012,18.6178571 C8.58532934,18.7571429 8.30688623,19.2214286 8.3997006,19.6857143 C8.63173653,20.1035714 9.00299401,20.3821429 9.3742515,20.3821429 Z M12.8083832,11.4678571 C12.8083832,11.4678571 12.8083832,11.4214286 12.8083832,11.4214286 C12.9476048,8.86785714 14.6646707,8.63571429 15.3607784,8.63571429 C15.4071856,8.63571429 15.4535928,8.63571429 15.4535928,8.63571429 C15.4535928,8.63571429 15.5,8.63571429 15.5,8.63571429 C16.1032934,8.58928571 18.005988,8.72857143 18.1452096,11.4214286 C18.1452096,11.4214286 18.1452096,11.4678571 18.1452096,11.4678571 C18.238024,12.1642857 18.1916168,14.2535714 17.2634731,15.3214286 C16.8458084,15.7857143 16.242515,16.0642857 15.5,16.0642857 C15.5,16.0642857 15.5,16.0642857 15.4535928,16.0642857 C14.7110778,16.0642857 14.1077844,15.8321429 13.6901198,15.3214286 C12.7155689,14.2535714 12.7155689,12.1642857 12.8083832,11.4678571 Z M6.54341317,24.375 C6.54341317,23.9107143 6.91467066,23.4928571 7.4251497,23.4928571 L23.6676647,23.4928571 C24.1317365,23.4928571 24.5494012,23.8642857 24.5494012,24.375 C24.5494012,24.8857143 24.1781437,25.2571429 23.6676647,25.2571429 L7.4251497,25.2571429 C6.96107784,25.2571429 6.54341317,24.8857143 6.54341317,24.375 Z M6.54341317,27.5785714 C6.54341317,27.1142857 6.91467066,26.6964286 7.4251497,26.6964286 L23.6676647,26.6964286 C24.1317365,26.6964286 24.5494012,27.0678571 24.5494012,27.5785714 C24.5494012,28.0892857 24.1781437,28.4607143 23.6676647,28.4607143 L7.4251497,28.4607143 C6.96107784,28.4607143 6.54341317,28.0428571 6.54341317,27.5785714 Z M6.54341317,30.7821429 C6.54341317,30.3178571 6.91467066,29.9 7.4251497,29.9 L19.6766467,29.9 C20.1407186,29.9 20.5583832,30.2714286 20.5583832,30.7821429 C20.5583832,31.2464286 20.1871257,31.6642857 19.6766467,31.6642857 L7.4251497,31.6642857 C6.96107784,31.6178571 6.54341317,31.2464286 6.54341317,30.7821429 Z" id="Shape"></path>
        </g>
    </g>
</svg>