<?xml version="1.0" encoding="UTF-8"?>
<svg width="37px" height="40px" viewBox="0 0 37 40" version="1.1" xmlns="http://www.w3.org/2000/svg" xmlns:xlink="http://www.w3.org/1999/xlink">
    <!-- Generator: Sketch 50.2 (55047) - http://www.bohemiancoding.com/sketch -->
    <title>Shape</title>
    <desc>Created with Sketch.</desc>
    <defs></defs>
    <g id="Page-1" stroke="none" stroke-width="1" fill="none" fill-rule="evenodd">
        <g id="reading" transform="translate(-1013.000000, -51.000000)" fill="#0F2A55" fill-rule="nonzero">
            <g id="Header" transform="translate(-55.000000, -8.000000)">
                <g id="Shape">
                    <path d="M1097.16667,84 C1093.02833,84 1089.66667,87.3583333 1089.66667,91.5 C1089.66667,95.6416667 1093.02833,99 1097.16667,99 C1101.305,99 1104.66667,95.6416667 1104.66667,91.5 C1104.66667,87.3583333 1101.305,84 1097.16667,84 Z M1098.35714,92.8888889 L1101.33333,92.8888889 L1097.16667,97.3333333 L1093,92.8888889 L1095.97619,92.8888889 L1095.97619,87.3333333 L1098.35714,87.3333333 L1098.35714,92.8888889 Z M1089.36667,99 L1068,99 L1068,59 L1082.015,59 C1090.11,59 1087.57333,72.3333333 1087.57333,72.3333333 C1092.58833,71.0916667 1101.33333,71.635 1101.33333,77.3333333 L1101.33333,81.5016667 C1100.04833,80.965 1098.64333,80.6666667 1097.16667,80.6666667 C1091.19333,80.6666667 1086.33333,85.5266667 1086.33333,91.5 C1086.33333,94.4116667 1087.49333,97.0516667 1089.36667,99 Z M1088.94667,59.125 C1092.61667,61.0816667 1098.84333,67.2633333 1101.33333,70.5933333 C1099.19,69.0933333 1094.59333,67.8316667 1091.18167,68.6283333 C1091.55167,66.1816667 1090.87333,61.0716667 1088.94667,59.125 Z"></path>
                </g>
            </g>
        </g>
    </g>
</svg>