<?xml version="1.0" encoding="UTF-8"?>
<svg width="42px" height="42px" viewBox="0 0 42 42" version="1.1" xmlns="http://www.w3.org/2000/svg" xmlns:xlink="http://www.w3.org/1999/xlink">
    <!-- Generator: Sketch 50.2 (55047) - http://www.bohemiancoding.com/sketch -->
    <title>Shape</title>
    <desc>Created with Sketch.</desc>
    <defs></defs>
    <g id="Page-1" stroke="none" stroke-width="1" fill="none" fill-rule="evenodd">
        <g id="reading" transform="translate(-1118.000000, -49.000000)" fill="#0F2A55" fill-rule="nonzero">
            <g id="Header" transform="translate(-55.000000, -8.000000)">
                <g id="Shape">
                    <path d="M1197.5,74.5 L1206.25,74.5 L1194,88.5 L1181.75,74.5 L1190.5,74.5 L1190.5,57 L1197.5,57 L1197.5,74.5 Z M1204.87275,60.0695 L1202.75,62.86775 C1207.972,65.89875 1211.5,71.539 1211.5,78 C1211.5,87.6495 1203.6495,95.5 1194,95.5 C1184.3505,95.5 1176.5,87.6495 1176.5,78 C1176.5,71.539 1180.028,65.89875 1185.25,62.86775 L1183.12725,60.0695 C1177.0635,63.74975 1173,70.38925 1173,78 C1173,89.59725 1182.40275,99 1194,99 C1205.59725,99 1215,89.59725 1215,78 C1215,70.38925 1210.9365,63.74975 1204.87275,60.0695 Z"></path>
                </g>
            </g>
        </g>
    </g>
</svg>