<?xml version="1.0" encoding="UTF-8"?>
<svg width="91px" height="94px" viewBox="0 0 91 94" version="1.1" xmlns="http://www.w3.org/2000/svg" xmlns:xlink="http://www.w3.org/1999/xlink">
    <!-- Generator: Sketch 50.2 (55047) - http://www.bohemiancoding.com/sketch -->
    <title>h1</title>
    <desc>Created with Sketch.</desc>
    <defs></defs>
    <g id="Page-1" stroke="none" stroke-width="1" fill="none" fill-rule="evenodd">
        <g id="Icon" fill="#49bde7" fill-rule="nonzero">
            <g id="Group">
                <path d="M11.3638541,94 C10.9093,94 7.01717993,93.911875 3.83530077,90.621875 C1.27843359,87.978125 0,84.18875 0,79.3125 L0,35.25 C0,32.400625 1.98867447,29.375 5.68192707,29.375 L11.3638541,29.375 C12.9263841,29.375 14.2048177,30.696875 14.2048177,32.3125 C14.2048177,33.928125 12.9263841,35.25 11.3638541,35.25 L5.68192707,35.25 L5.68192707,79.3125 C5.68192707,87.5375 10.4547458,88.095625 11.3922638,88.125 L79.5469789,88.125 C84.7459422,88.125 85.2004964,83.630625 85.228906,82.25 L85.228906,5.875 L22.7277083,5.875 L22.7277083,73.4375 C22.7277083,75.053125 21.4492747,76.375 19.8867447,76.375 C18.3242148,76.375 17.0457812,75.053125 17.0457812,73.4375 L17.0457812,5.875 C17.0457812,3.025625 19.0344557,0 22.7277083,0 L85.228906,0 C87.9846406,0 90.9108331,2.085625 90.9108331,5.875 L90.9108331,82.25 C90.9108331,86.979375 87.8710021,94 79.5469789,94 L11.3638541,94 C11.3638541,94 11.3638541,94 11.3638541,94 Z" id="Shape"></path>
                <path d="M51.1373436,23.5 L36.9325259,23.5 C35.369996,23.5 34.0915624,22.178125 34.0915624,20.5625 C34.0915624,18.946875 35.369996,17.625 36.9325259,17.625 L51.1373436,17.625 C52.6998735,17.625 53.9783071,18.946875 53.9783071,20.5625 C53.9783071,22.178125 52.6998735,23.5 51.1373436,23.5 Z" id="Shape"></path>
                <path d="M71.0240883,35.25 L36.9325259,35.25 C35.369996,35.25 34.0915624,33.928125 34.0915624,32.3125 C34.0915624,30.696875 35.369996,29.375 36.9325259,29.375 L71.0240883,29.375 C72.5866183,29.375 73.8650519,30.696875 73.8650519,32.3125 C73.8650519,33.928125 72.5866183,35.25 71.0240883,35.25 Z" id="Shape"></path>
                <path d="M71.0240883,47 L36.9325259,47 C35.369996,47 34.0915624,45.678125 34.0915624,44.0625 C34.0915624,42.446875 35.369996,41.125 36.9325259,41.125 L71.0240883,41.125 C72.5866183,41.125 73.8650519,42.446875 73.8650519,44.0625 C73.8650519,45.678125 72.5866183,47 71.0240883,47 Z" id="Shape"></path>
                <path d="M71.0240883,58.75 L36.9325259,58.75 C35.369996,58.75 34.0915624,57.428125 34.0915624,55.8125 C34.0915624,54.196875 35.369996,52.875 36.9325259,52.875 L71.0240883,52.875 C72.5866183,52.875 73.8650519,54.196875 73.8650519,55.8125 C73.8650519,57.428125 72.5866183,58.75 71.0240883,58.75 Z" id="Shape"></path>
                <path d="M71.0240883,70.5 L36.9325259,70.5 C35.369996,70.5 34.0915624,69.178125 34.0915624,67.5625 C34.0915624,65.946875 35.369996,64.625 36.9325259,64.625 L71.0240883,64.625 C72.5866183,64.625 73.8650519,65.946875 73.8650519,67.5625 C73.8650519,69.178125 72.5866183,70.5 71.0240883,70.5 Z" id="Shape"></path>
            </g>
        </g>
    </g>
</svg>