<?xml version="1.0" encoding="UTF-8"?>
<svg width="96px" height="90px" viewBox="0 0 96 90" version="1.1" xmlns="http://www.w3.org/2000/svg" xmlns:xlink="http://www.w3.org/1999/xlink">
    <!-- Generator: Sketch 50.2 (55047) - http://www.bohemiancoding.com/sketch -->
    <title>h2</title>
    <desc>Created with Sketch.</desc>
    <defs></defs>
    <g id="Page-1" stroke="none" stroke-width="1" fill="none" fill-rule="evenodd">
        <g id="History" fill="#46CDAB" fill-rule="nonzero">
            <path d="M51.2071549,0.472408696 C32.5521694,0.472408696 16.5173142,11.9466261 9.93023825,28.2713217 L7.30498994,23.5838217 C6.61764531,22.2758856 5.25779415,21.4713807 3.79119603,21.5050174 C2.42153541,21.5358535 1.16964783,22.2938025 0.497989049,23.4988728 C-0.173669731,24.7039432 -0.165404522,26.1772648 0.519731453,27.3745826 L7.62809742,40.2143087 C8.65527593,42.0533815 10.9426838,42.7387349 12.7978172,41.7632609 L25.4393975,35.2414304 C26.7330663,34.6429233 27.5979396,33.3773317 27.6925948,31.944268 C27.78725,30.5112043 27.0964765,29.140957 25.892968,28.374453 C24.6894595,27.607949 23.1666158,27.5683628 21.9256036,28.2713217 L17.2809335,30.676213 C22.8349186,17.5624565 35.9213921,8.29849565 51.2071549,8.29849565 C71.5637019,8.29849565 87.9203075,24.6318522 87.9203075,44.8202609 C87.9203075,65.0085652 71.5637019,81.342 51.2071549,81.342 C33.7930572,81.342 19.2873923,69.2813478 15.4634539,53.217 C15.1387809,51.8554104 14.1190084,50.7720579 12.7882748,50.3750309 C11.4575413,49.9780039 10.0180167,50.3276204 9.0119561,51.2921831 C8.00589552,52.2567458 7.58614347,53.6897147 7.91081647,55.0513043 C12.569251,74.6213478 30.2460091,89.168087 51.2071549,89.168087 C75.69909,89.168087 95.6748872,69.2947826 95.6748872,44.8202609 C95.6748872,20.3456609 75.69909,0.472408696 51.2071549,0.472408696 Z M51.6918161,19.9561043 C50.6564114,19.9668849 49.6682864,20.3951472 48.9475801,21.145481 C48.2268738,21.8958148 47.8334579,22.9058872 47.8549793,23.9506696 L47.8549793,44.8202609 C47.8542799,46.0093115 48.3892767,47.1341901 49.308963,47.8773913 L62.2332624,58.3121739 C63.3154535,59.1860813 64.7774215,59.4108938 66.0683957,58.9019173 C67.35937,58.3929408 68.2831948,57.2275112 68.4918356,55.8446834 C68.7004763,54.4618557 68.1622313,53.0717421 67.0798747,52.1980435 L55.609559,42.9452609 L55.609559,23.9506696 C55.6313747,22.8917264 55.2269492,21.8690817 54.4886538,21.1163092 C53.7503585,20.3635368 52.741252,19.9449318 51.6918161,19.9561043 Z" id="Shape"></path>
        </g>
    </g>
</svg>