<?xml version="1.0" encoding="UTF-8"?>
<svg width="87px" height="91px" viewBox="0 0 87 91" version="1.1" xmlns="http://www.w3.org/2000/svg" xmlns:xlink="http://www.w3.org/1999/xlink">
    <!-- Generator: Sketch 50.2 (55047) - http://www.bohemiancoding.com/sketch -->
    <title>h3</title>
    <desc>Created with Sketch.</desc>
    <defs></defs>
    <g id="Page-1" stroke="none" stroke-width="1" fill="none" fill-rule="evenodd">
        <g id="Icon" fill-rule="nonzero">
            <g id="Group">
                <path d="M79.4300881,91 L6.74304789,91 C3.0268314,91 -2.22044605e-15,87.8064688 -2.22044605e-15,83.87925 L-2.22044605e-15,12.8110938 C-2.22044605e-15,8.883875 3.0268314,5.6875 6.7457408,5.6875 L79.4273952,5.6875 C83.1463046,5.6875 86.173136,8.883875 86.173136,12.8110938 L86.173136,83.87925 C86.173136,87.8064688 83.1489975,91 79.4300881,91 Z M6.7457408,11.375 C5.99711169,11.375 5.385821,12.0205313 5.385821,12.8110938 L5.385821,83.87925 C5.385821,84.6698125 5.99441878,85.3125 6.74304789,85.3125 L79.4300881,85.3125 C80.1787173,85.3125 80.787315,84.6698125 80.787315,83.87925 L80.787315,12.8110938 C80.787315,12.0205313 80.1760243,11.375 79.4273952,11.375 L6.7457408,11.375 Z M83.4802255,28.4375 L2.6929105,28.4375 C1.2064239,28.4375 -2.22044605e-15,27.1635 -2.22044605e-15,25.59375 C-2.22044605e-15,24.024 1.2064239,22.75 2.6929105,22.75 L83.4802255,22.75 C84.969405,22.75 86.173136,24.024 86.173136,25.59375 C86.173136,27.1635 84.969405,28.4375 83.4802255,28.4375 Z M16.157463,17.0625 C14.6709764,17.0625 13.4645525,15.7885 13.4645525,14.21875 L13.4645525,2.84375 C13.4645525,1.274 14.6709764,0 16.157463,0 C17.6439496,0 18.8503735,1.274 18.8503735,2.84375 L18.8503735,14.21875 C18.8503735,15.7885 17.6439496,17.0625 16.157463,17.0625 Z M70.015673,17.0625 C68.5264935,17.0625 67.3227625,15.7885 67.3227625,14.21875 L67.3227625,2.84375 C67.3227625,1.274 68.5264935,0 70.015673,0 C71.5048525,0 72.7085835,1.274 72.7085835,2.84375 L72.7085835,14.21875 C72.7085835,15.7885 71.5048525,17.0625 70.015673,17.0625 Z" id="Shape" fill="#FFC96C"></path>
                <path d="M16.157463,54.03125 C14.6702096,54.03125 13.4645525,52.7580598 13.4645525,51.1875 C13.4645525,49.6169402 14.6702096,48.34375 16.157463,48.34375 C17.6447164,48.34375 18.8503735,49.6169402 18.8503735,51.1875 C18.8503735,52.7580598 17.6447164,54.03125 16.157463,54.03125 Z M16.157463,65.40625 C14.6702096,65.40625 13.4645525,64.1330598 13.4645525,62.5625 C13.4645525,60.9919402 14.6702096,59.71875 16.157463,59.71875 C17.6447164,59.71875 18.8503735,60.9919402 18.8503735,62.5625 C18.8503735,64.1330598 17.6447164,65.40625 16.157463,65.40625 Z M16.157463,76.78125 C14.6702096,76.78125 13.4645525,75.5080598 13.4645525,73.9375 C13.4645525,72.3669402 14.6702096,71.09375 16.157463,71.09375 C17.6447164,71.09375 18.8503735,72.3669402 18.8503735,73.9375 C18.8503735,75.5080598 17.6447164,76.78125 16.157463,76.78125 Z M59.244031,42.65625 C57.7567776,42.65625 56.5511205,41.3830598 56.5511205,39.8125 C56.5511205,38.2419402 57.7567776,36.96875 59.244031,36.96875 C60.7312844,36.96875 61.9369415,38.2419402 61.9369415,39.8125 C61.9369415,41.3830598 60.7312844,42.65625 59.244031,42.65625 Z M59.244031,54.03125 C57.7567776,54.03125 56.5511205,52.7580598 56.5511205,51.1875 C56.5511205,49.6169402 57.7567776,48.34375 59.244031,48.34375 C60.7312844,48.34375 61.9369415,49.6169402 61.9369415,51.1875 C61.9369415,52.7580598 60.7312844,54.03125 59.244031,54.03125 Z M59.244031,65.40625 C57.7567776,65.40625 56.5511205,64.1330598 56.5511205,62.5625 C56.5511205,60.9919402 57.7567776,59.71875 59.244031,59.71875 C60.7312844,59.71875 61.9369415,60.9919402 61.9369415,62.5625 C61.9369415,64.1330598 60.7312844,65.40625 59.244031,65.40625 Z M59.244031,76.78125 C57.7567776,76.78125 56.5511205,75.5080598 56.5511205,73.9375 C56.5511205,72.3669402 57.7567776,71.09375 59.244031,71.09375 C60.7312844,71.09375 61.9369415,72.3669402 61.9369415,73.9375 C61.9369415,75.5080598 60.7312844,76.78125 59.244031,76.78125 Z M70.015673,42.65625 C68.5284196,42.65625 67.3227625,41.3830598 67.3227625,39.8125 C67.3227625,38.2419402 68.5284196,36.96875 70.015673,36.96875 C71.5029264,36.96875 72.7085835,38.2419402 72.7085835,39.8125 C72.7085835,41.3830598 71.5029264,42.65625 70.015673,42.65625 Z M70.015673,54.03125 C68.5284196,54.03125 67.3227625,52.7580598 67.3227625,51.1875 C67.3227625,49.6169402 68.5284196,48.34375 70.015673,48.34375 C71.5029264,48.34375 72.7085835,49.6169402 72.7085835,51.1875 C72.7085835,52.7580598 71.5029264,54.03125 70.015673,54.03125 Z M70.015673,65.40625 C68.5284196,65.40625 67.3227625,64.1330598 67.3227625,62.5625 C67.3227625,60.9919402 68.5284196,59.71875 70.015673,59.71875 C71.5029264,59.71875 72.7085835,60.9919402 72.7085835,62.5625 C72.7085835,64.1330598 71.5029264,65.40625 70.015673,65.40625 Z M37.700747,42.65625 C36.2134936,42.65625 35.0078365,41.3830598 35.0078365,39.8125 C35.0078365,38.2419402 36.2134936,36.96875 37.700747,36.96875 C39.1880004,36.96875 40.3936575,38.2419402 40.3936575,39.8125 C40.3936575,41.3830598 39.1880004,42.65625 37.700747,42.65625 Z M37.700747,54.03125 C36.2134936,54.03125 35.0078365,52.7580598 35.0078365,51.1875 C35.0078365,49.6169402 36.2134936,48.34375 37.700747,48.34375 C39.1880004,48.34375 40.3936575,49.6169402 40.3936575,51.1875 C40.3936575,52.7580598 39.1880004,54.03125 37.700747,54.03125 Z M37.700747,65.40625 C36.2134936,65.40625 35.0078365,64.1330598 35.0078365,62.5625 C35.0078365,60.9919402 36.2134936,59.71875 37.700747,59.71875 C39.1880004,59.71875 40.3936575,60.9919402 40.3936575,62.5625 C40.3936575,64.1330598 39.1880004,65.40625 37.700747,65.40625 Z M37.700747,76.78125 C36.2134936,76.78125 35.0078365,75.5080598 35.0078365,73.9375 C35.0078365,72.3669402 36.2134936,71.09375 37.700747,71.09375 C39.1880004,71.09375 40.3936575,72.3669402 40.3936575,73.9375 C40.3936575,75.5080598 39.1880004,76.78125 37.700747,76.78125 Z M26.929105,42.65625 C25.4418516,42.65625 24.2361945,41.3830598 24.2361945,39.8125 C24.2361945,38.2419402 25.4418516,36.96875 26.929105,36.96875 C28.4163584,36.96875 29.6220155,38.2419402 29.6220155,39.8125 C29.6220155,41.3830598 28.4163584,42.65625 26.929105,42.65625 Z M26.929105,54.03125 C25.4418516,54.03125 24.2361945,52.7580598 24.2361945,51.1875 C24.2361945,49.6169402 25.4418516,48.34375 26.929105,48.34375 C28.4163584,48.34375 29.6220155,49.6169402 29.6220155,51.1875 C29.6220155,52.7580598 28.4163584,54.03125 26.929105,54.03125 Z M26.929105,65.40625 C25.4418516,65.40625 24.2361945,64.1330598 24.2361945,62.5625 C24.2361945,60.9919402 25.4418516,59.71875 26.929105,59.71875 C28.4163584,59.71875 29.6220155,60.9919402 29.6220155,62.5625 C29.6220155,64.1330598 28.4163584,65.40625 26.929105,65.40625 Z M26.929105,76.78125 C25.4418516,76.78125 24.2361945,75.5080598 24.2361945,73.9375 C24.2361945,72.3669402 25.4418516,71.09375 26.929105,71.09375 C28.4163584,71.09375 29.6220155,72.3669402 29.6220155,73.9375 C29.6220155,75.5080598 28.4163584,76.78125 26.929105,76.78125 Z M48.472389,42.65625 C46.9851356,42.65625 45.7794785,41.3830598 45.7794785,39.8125 C45.7794785,38.2419402 46.9851356,36.96875 48.472389,36.96875 C49.9596424,36.96875 51.1652995,38.2419402 51.1652995,39.8125 C51.1652995,41.3830598 49.9596424,42.65625 48.472389,42.65625 Z M48.472389,54.03125 C46.9851356,54.03125 45.7794785,52.7580598 45.7794785,51.1875 C45.7794785,49.6169402 46.9851356,48.34375 48.472389,48.34375 C49.9596424,48.34375 51.1652995,49.6169402 51.1652995,51.1875 C51.1652995,52.7580598 49.9596424,54.03125 48.472389,54.03125 Z M48.472389,65.40625 C46.9851356,65.40625 45.7794785,64.1330598 45.7794785,62.5625 C45.7794785,60.9919402 46.9851356,59.71875 48.472389,59.71875 C49.9596424,59.71875 51.1652995,60.9919402 51.1652995,62.5625 C51.1652995,64.1330598 49.9596424,65.40625 48.472389,65.40625 Z M48.472389,76.78125 C46.9851356,76.78125 45.7794785,75.5080598 45.7794785,73.9375 C45.7794785,72.3669402 46.9851356,71.09375 48.472389,71.09375 C49.9596424,71.09375 51.1652995,72.3669402 51.1652995,73.9375 C51.1652995,75.5080598 49.9596424,76.78125 48.472389,76.78125 Z" id="Combined-Shape" fill="#FFC96D"></path>
            </g>
        </g>
    </g>
</svg>