<?xml version="1.0" encoding="UTF-8"?>
<svg width="97px" height="97px" viewBox="0 0 97 97" version="1.1" xmlns="http://www.w3.org/2000/svg" xmlns:xlink="http://www.w3.org/1999/xlink">
    <!-- Generator: Sketch 50.2 (55047) - http://www.bohemiancoding.com/sketch -->
    <title>h4</title>
    <desc>Created with Sketch.</desc>
    <defs></defs>
    <g id="Page-1" stroke="none" stroke-width="1" fill="none" fill-rule="evenodd">
        <g id="Icon" fill="#82B1EB" fill-rule="nonzero">
            <path d="M4.04812793,65.5588474 L13.1880976,66.488463 L13.1880976,81.180431 C13.1934423,85.2519399 16.3614769,88.5511626 20.271089,88.5567286 L36.212671,88.5567286 L35.1647764,93.9727498 C34.9981132,94.830378 35.2694953,95.7167477 35.882098,96.3156169 C36.4947008,96.9144861 37.3612678,97.1405544 38.1726221,96.9131643 L55.5405051,92.0731005 C55.978017,91.9531353 56.3745935,91.7081361 56.685427,91.3657843 L59.1887308,88.5870421 L71.9090071,88.5870421 C75.8186193,88.5814761 78.9866539,85.2822535 78.9919985,81.2107446 L78.9919985,66.5895082 L93.5460904,50.4222807 C96.9861993,46.5991539 96.8082996,40.5983255 93.1482786,37.0034818 L89.1216465,33.0526156 C87.3664415,31.3139377 85.0125589,30.3851175 82.5917106,30.4759637 C81.3452819,30.5154633 80.1199816,30.8215752 78.9919985,31.3752658 L78.9919985,22.2306777 C81.1322372,19.7324588 82.2863966,16.4839369 82.2230069,13.1366122 C81.9604916,5.74962974 76.0959188,-0.0754998889 68.9981887,0.000739879747 L17.9327316,0.000739879747 C17.6818418,0.00405612308 17.4330083,0.0483823031 17.1953243,0.132098603 C14.8288267,0.287063014 12.5596745,1.16971558 10.6750911,2.66833242 C7.1244738,5.51543162 4.8628342,9.76520112 4.42653432,14.4097814 L0.0214958311,60.4560662 C-0.0948207357,61.6889222 0.264167257,62.9193724 1.01940545,63.876454 C1.77464364,64.8335355 2.86419622,65.4387597 4.04812793,65.5588474 Z M22.8423119,18.1888708 C21.564398,19.6261331 19.8522062,20.5640404 17.990948,20.8463588 L17.990948,17.6129133 C17.990948,16.3293821 18.9900816,15.2888744 20.2225754,15.2888744 L24.4626675,15.2888744 C24.112746,16.357967 23.5619184,17.3437989 22.8423119,18.1888708 Z M20.271089,83.50447 C19.0385952,83.50447 18.0394616,82.4639623 18.0394616,81.180431 L18.0394616,26.7979195 L69.3571897,26.7979195 C70.9926261,26.7975519 72.6129304,26.4717326 74.1309318,25.8379903 L74.1309318,35.8111488 L39.3563549,74.3699864 C39.0477,74.7106406 38.8360628,75.1339507 38.745083,75.592633 L37.1926466,83.50447 L20.271089,83.50447 Z M56.006236,84.696803 C55.3975138,83.1495643 54.5807919,81.7002402 53.5805541,80.3922787 L82.504386,48.3912727 L85.8518272,51.6449273 L56.006236,84.696803 Z M50.0487611,76.9264293 C48.7327573,75.9644373 47.2920193,75.2023299 45.7698581,74.6630174 L75.5766383,41.6010372 L78.9628903,44.9254233 L50.0487611,76.9264293 Z M43.0239861,79.0989005 C47.2730181,80.1354943 50.6596877,83.4694674 51.8922794,87.8292033 L40.6953313,90.9413946 L43.0239861,79.0989005 Z M74.1503373,81.180431 C74.1503373,82.4639623 73.1512036,83.50447 71.9187099,83.50447 L63.7393102,83.50447 L74.1503373,71.9651113 L74.1503373,81.180431 Z M82.7469542,35.5686404 C83.8960128,35.51207 85.0174598,35.9463776 85.8518272,36.7710779 L89.8299456,40.7219442 C91.542265,42.4068911 91.6246708,45.2163069 90.0142975,47.0069539 L89.1410519,48.0174056 L78.904674,37.9229929 L79.7682168,36.9630638 C80.5425196,36.1027073 81.6150887,35.6006102 82.7469542,35.5686404 Z M77.371643,13.2780755 C77.4081373,15.514217 76.57927,17.6716318 75.0717235,19.2644141 C73.564177,20.8571963 71.5047178,21.7514121 69.3571897,21.7456609 L26.2479694,21.7456885 L26.4129158,21.5738841 C28.9088677,18.7623817 30.1399287,14.9787134 29.7991679,11.1662314 C29.7991679,10.8092051 29.7571227,10.4723879 29.6730324,10.1557797 C29.3926408,8.31046339 28.6941706,6.56125452 27.6354595,5.05299848 L68.9981887,5.05299848 C73.4728133,4.96684079 77.1929699,8.6210764 77.371643,13.2780755 Z M9.2487901,14.9150073 C9.56395708,11.6707878 11.1507345,8.70581884 13.6344231,6.72024381 C15.6552559,5.10586509 18.3440893,4.7217529 20.7077118,5.70979209 C22.6641673,6.46387702 24.1568885,8.14607884 24.7246412,10.2366158 L20.271089,10.2366158 C16.3614769,10.2421818 13.1934423,13.5414044 13.1880976,17.6129133 L13.1880976,61.4159954 L4.89226526,60.5672159 L9.2487901,14.9150073 Z" id="Shape"></path>
            <path d="M39.3657055,61.4361493 C39.3548755,60.0875295 38.2544017,58.9999568 36.9006576,59 L26.468575,59.0884086 C25.1071666,59.0884086 24.0035271,60.1879058 24.0035271,61.5442043 C24.0035271,62.9005028 25.1071666,64 26.468575,64 L36.9006576,63.9115914 C37.5578601,63.9116123 38.1878619,63.6501823 38.6507191,63.1853734 C39.1135763,62.7205644 39.3709631,62.0908642 39.3657055,61.4361493 Z" id="Shape"></path>
            <path d="M30.2786223,72 L26.3697018,72 C25.0628996,72 24.0035271,73.1192881 24.0035271,74.5 C24.0035271,75.8807119 25.0628996,77 26.3697018,77 L30.2786223,77 C31.5854244,77 32.6447969,75.8807119 32.6447969,74.5 C32.6447969,73.1192881 31.5854244,72 30.2786223,72 Z" id="Shape"></path>
            <path d="M26.4230693,52 L49.4280764,52 C50.7643526,52 51.8476186,50.8807119 51.8476186,49.5 C51.8476186,48.1192881 50.7643526,47 49.4280764,47 L26.4230693,47 C25.0867931,47 24.0035271,48.1192881 24.0035271,49.5 C24.0035271,50.8807119 25.0867931,52 26.4230693,52 Z" id="Shape"></path>
            <path d="M26.4184819,39 L62.874639,39 C64.2083817,39 65.2895938,37.8807119 65.2895938,36.5 C65.2895938,35.1192881 64.2083817,34 62.874639,34 L26.4184819,34 C25.0847392,34 24.0035271,35.1192881 24.0035271,36.5 C24.0035271,37.8807119 25.0847392,39 26.4184819,39 Z" id="Shape"></path>
        </g>
    </g>
</svg>