<?xml version="1.0" encoding="UTF-8"?>
<svg width="48px" height="40px" viewBox="0 0 48 40" version="1.1" xmlns="http://www.w3.org/2000/svg" xmlns:xlink="http://www.w3.org/1999/xlink">
    <!-- Generator: Sketch 50.2 (55047) - http://www.bohemiancoding.com/sketch -->
    <title>homeWhite</title>
    <desc>Created with Sketch.</desc>
    <defs></defs>
    <g id="Page-1" stroke="none" stroke-width="1" fill="none" fill-rule="evenodd">
        <path d="M28.6761237,1.73337446 C26.1395623,-0.563456503 22.2346177,-0.579584185 19.678428,1.69621337 L0.645933726,18.7903117 C0.129582967,19.2341085 -0.101550458,19.9172113 0.041807094,20.5757764 C0.185164646,21.2343414 0.68057181,21.7652763 1.33668109,21.963511 C1.99279037,22.1617458 2.70689363,21.9962486 3.20317357,21.5309416 L5.727264,19.2594704 L5.727264,38.1419458 C5.727264,39.1681208 6.57534939,40 7.62151573,40 L18.8828423,40 C19.9290086,40 20.777094,39.1681208 20.777094,38.1419458 L20.777094,31.1742427 C20.7770941,29.3296932 22.3015275,27.8343904 24.1820115,27.8343904 C26.0624955,27.8343904 27.5869289,29.3296932 27.586929,31.1742427 L27.586929,38.1419458 C27.586929,39.1681208 28.4350144,40 29.4811807,40 L40.7377716,40 C41.783938,40 42.6320234,39.1681208 42.6320234,38.1419458 L42.6320234,19.5614042 L44.7677922,21.5123611 C45.2578271,21.9919332 45.9755298,22.1711226 46.6396792,21.9797167 C47.3038285,21.7883108 47.8086494,21.2567936 47.9563352,20.5934322 C48.104021,19.9300709 47.8710507,19.240515 47.3487102,18.7949568 L28.6761237,1.73337446 Z M38.8435199,36.2838917 L31.3754325,36.2838917 L31.3754325,31.1742427 C31.3754325,27.2773432 28.1548282,24.118282 24.1820115,24.118282 C20.2091948,24.118282 16.9885905,27.2773432 16.9885905,31.1742427 L16.9885905,36.2838917 L9.52050309,36.2838917 L9.52050309,15.8452958 L22.2356678,4.43684327 C23.3241342,3.45116153 25.0020038,3.45116153 26.0904701,4.43684327 L38.8435199,16.1054234 L38.8435199,36.2838917 Z" id="Shape" fill="#051941" fill-rule="nonzero"></path>
    </g>
</svg>