<?xml version="1.0" encoding="UTF-8"?>
<svg width="40px" height="37px" viewBox="0 0 40 37" version="1.1" xmlns="http://www.w3.org/2000/svg" xmlns:xlink="http://www.w3.org/1999/xlink">
    <!-- Generator: Sketch 50.2 (55047) - http://www.bohemiancoding.com/sketch -->
    <title>Shape</title>
    <desc>Created with Sketch.</desc>
    <defs></defs>
    <g id="Page-1" stroke="none" stroke-width="1" fill="none" fill-rule="evenodd">
        <g id="reading" transform="translate(-1229.000000, -55.000000)" fill="#0F2A55" fill-rule="nonzero">
            <g id="Header" transform="translate(-55.000000, -8.000000)">
                <g id="Shape">
                    <path d="M1324,79.6666667 L1324,99.6666667 L1284,99.6666667 L1284,79.6666667 L1290.66667,79.6666667 L1290.66667,63 L1307.88,63 C1310.44333,63 1317.33333,71.0866667 1317.33333,73.0516667 L1317.33333,79.6666667 L1324,79.6666667 Z M1314,74.0066667 C1314,71.7766667 1310.19833,71.5166667 1308.58333,71.9583333 C1309.33833,70.6033333 1309.09167,66.3333333 1306.78,66.3333333 L1294,66.3333333 L1294,88 L1314,88 L1314,74.0066667 Z M1310.66667,83 L1297.33333,83 L1297.33333,81.3333333 L1310.66667,81.3333333 L1310.66667,83 Z M1310.66667,78 L1297.33333,78 L1297.33333,79.6666667 L1310.66667,79.6666667 L1310.66667,78 Z M1310.66667,74.6666667 L1297.33333,74.6666667 L1297.33333,76.3333333 L1310.66667,76.3333333 L1310.66667,74.6666667 Z"></path>
                </g>
            </g>
        </g>
    </g>
</svg>