<?xml version="1.0" encoding="UTF-8"?>
<svg width="42px" height="42px" viewBox="0 0 42 42" version="1.1" xmlns="http://www.w3.org/2000/svg" xmlns:xlink="http://www.w3.org/1999/xlink">
    <!-- Generator: Sketch 50.2 (55047) - http://www.bohemiancoding.com/sketch -->
    <title>Shape</title>
    <desc>Created with Sketch.</desc>
    <defs></defs>
    <g id="Page-1" stroke="none" stroke-width="1" fill="none" fill-rule="evenodd">
        <g id="reading" transform="translate(-1337.000000, -50.000000)" fill="#0F2A55" fill-rule="nonzero">
            <g id="Header" transform="translate(-55.000000, -8.000000)">
                <g id="Shape">
                    <path d="M1413,61.5 C1422.6495,61.5 1430.5,69.3505 1430.5,79 C1430.5,88.6495 1422.6495,96.5 1413,96.5 C1403.3505,96.5 1395.5,88.6495 1395.5,79 C1395.5,69.3505 1403.3505,61.5 1413,61.5 Z M1413,58 C1401.40275,58 1392,67.40275 1392,79 C1392,90.59725 1401.40275,100 1413,100 C1424.59725,100 1434,90.59725 1434,79 C1434,67.40275 1424.59725,58 1413,58 Z M1413,72 L1413,78.47675 C1413,83.4765 1409.72925,86.84 1405.125,87.75 L1404.2535,85.88975 C1406.38675,85.0865 1407.75525,82.70125 1407.75525,80.764 L1404.25,80.764 L1404.25,72 L1413,72 Z M1423.5,72 L1423.5,78.47675 C1423.5,83.4765 1420.22925,86.84 1415.625,87.75 L1414.7535,85.88975 C1416.88675,85.0865 1418.25525,82.70125 1418.25525,80.764 L1414.75,80.764 L1414.75,72 L1423.5,72 Z"></path>
                </g>
            </g>
        </g>
    </g>
</svg>