<?xml version="1.0" encoding="iso-8859-1"?>
<!-- Generator: Adobe Illustrator 19.0.0, SVG Export Plug-In . SVG Version: 6.00 Build 0)  -->
<svg version="1.1" id="Capa_1" xmlns="http://www.w3.org/2000/svg" xmlns:xlink="http://www.w3.org/1999/xlink" x="0px" y="0px"
	 viewBox="0 0 480 480" style="enable-background:new 0 0 480 480;" xml:space="preserve">
<g>
	<g>
		<path d="M304,160H168.224c-6.464,0-12.288,3.904-14.784,9.888c-2.464,5.952-1.088,12.864,3.488,17.44l33.952,33.952
			L21.184,391.008c-6.24,6.24-6.24,16.384,0,22.624l45.248,45.248c3.136,3.136,7.232,4.672,11.328,4.672s8.192-1.568,11.328-4.672
			l169.728-169.728l33.856,33.92c4.608,4.608,11.456,5.952,17.44,3.456c5.984-2.464,9.888-8.32,9.888-14.784V176
			C320,167.168,312.832,160,304,160z M288,273.12l-17.952-17.92c-6.24-6.24-16.384-6.24-22.624,0L77.728,424.896l-22.624-22.624
			L224.8,232.544c6.24-6.24,6.24-16.384,0-22.624L206.848,192H288V273.12z"/>
	</g>
</g>
<g>
	<g>
		<path d="M464,0H16C7.168,0,0,7.168,0,16v320c0,8.832,7.168,16,16,16c8.832,0,16-7.168,16-16V32h416v416H144
			c-8.832,0-16,7.168-16,16c0,8.832,7.168,16,16,16h320c8.832,0,16-7.168,16-16V16C480,7.168,472.832,0,464,0z"/>
	</g>
</g>
<g>
</g>
<g>
</g>
<g>
</g>
<g>
</g>
<g>
</g>
<g>
</g>
<g>
</g>
<g>
</g>
<g>
</g>
<g>
</g>
<g>
</g>
<g>
</g>
<g>
</g>
<g>
</g>
<g>
</g>
</svg>
