<?xml version="1.0" encoding="UTF-8"?>
<svg width="37px" height="37px" viewBox="0 0 37 37" version="1.1" xmlns="http://www.w3.org/2000/svg" xmlns:xlink="http://www.w3.org/1999/xlink">
    <!-- Generator: Sketch 50.2 (55047) - http://www.bohemiancoding.com/sketch -->
    <title>logWhite</title>
    <desc>Created with Sketch.</desc>
    <defs></defs>
    <g id="Page-1" stroke="none" stroke-width="1" fill="none" fill-rule="evenodd">
        <g id="Group" fill="#FFFFFF" fill-rule="nonzero">
            <path d="M31.9471875,31.49625 C31.9471875,31.7516817 31.7401192,31.95875 31.4846875,31.95875 L5.50375,31.95875 C5.2483183,31.95875 5.04125,31.7516817 5.04125,31.49625 L5.04125,5.50375 C5.04125,5.2483183 5.2483183,5.04125 5.50375,5.04125 L31.49625,5.04125 C31.7516817,5.04125 31.95875,5.2483183 31.95875,5.50375 L31.95875,9.25 C31.95875,9.74809181 32.3625332,10.151875 32.860625,10.151875 L35.5315625,10.151875 C36.025133,10.1455467 36.4219156,9.74361109 36.421875,9.25 L36.421875,3.0409375 C36.421875,1.68076371 35.3192363,0.578125 33.9590625,0.578125 L3.0409375,0.578125 C1.68076371,0.578125 0.578125,1.68076371 0.578125,3.0409375 L0.578125,33.9590625 C0.578125,35.3192363 1.68076371,36.421875 3.0409375,36.421875 L33.9590625,36.421875 C35.3192363,36.421875 36.421875,35.3192363 36.421875,33.9590625 L36.421875,27.75 C36.421875,27.2519082 36.0180918,26.848125 35.52,26.848125 L32.8490625,26.848125 C32.3509707,26.848125 31.9471875,27.2519082 31.9471875,27.75 L31.9471875,31.49625 Z" id="Shape"></path>
            <path d="M31.0915625,16.0371875 L22.0496875,16.0371875 L22.0496875,11.3196875 C22.0459311,10.7071584 21.6708643,10.1581791 21.1016103,9.9320023 C20.5323563,9.70582549 19.8827986,9.84769947 19.4596875,10.290625 L13.27375,16.835 C12.6335887,17.5088684 12.6335887,18.5661316 13.27375,19.24 L19.4596875,25.784375 C19.8827986,26.2273005 20.5323563,26.3691745 21.1016103,26.1429977 C21.6708643,25.9168209 22.0459311,25.3678416 22.0496875,24.7553125 L22.0496875,20.2921875 L31.0915625,20.2921875 C31.5704969,20.2921875 31.95875,19.9039344 31.95875,19.425 L31.95875,16.8928125 C31.9524239,16.4183996 31.5660176,16.0371453 31.0915625,16.0371875 Z" id="Shape"></path>
        </g>
    </g>
</svg>