<?xml version="1.0" encoding="UTF-8"?>
<svg width="29px" height="24px" viewBox="0 0 29 24" version="1.1" xmlns="http://www.w3.org/2000/svg" xmlns:xlink="http://www.w3.org/1999/xlink">
    <!-- Generator: Sketch 50.2 (55047) - http://www.bohemiancoding.com/sketch -->
    <title>s1</title>
    <desc>Created with Sketch.</desc>
    <defs></defs>
    <g id="Page-1" stroke="none" stroke-width="1" fill="none" fill-rule="evenodd">
        <path d="M12.2471064,0 C5.49291943,0 0,5.35939676 0,11.9494583 C0,18.5395558 5.49292305,23.8989764 12.2471064,23.8989764 C18.7287451,23.8989764 24.0498643,18.9685022 24.4686984,12.7460902 L26.203705,12.7460902 L27.594262,14.1028738 C27.8003187,14.3094598 28.1046765,14.3913297 28.3901215,14.3169539 C28.6755664,14.242578 28.8975701,14.0235587 28.9706347,13.7442446 C29.0436993,13.4649305 28.956427,13.1688934 28.7424281,12.9701429 L27.6835638,11.9494583 L28.7424281,10.9163463 C29.0022837,10.6782216 29.0737763,10.3031404 28.9190358,9.98978554 C28.7642952,9.67643068 28.4190933,9.49724134 28.0662857,9.54713523 C27.8863478,9.57249933 27.7202317,9.6557292 27.594262,9.78363532 L26.1909478,11.1528265 L24.4686984,11.1528265 C24.0454765,4.93460078 18.7257155,0 12.2471064,0 Z M12.2471064,1.59326377 C17.8413017,1.59326377 22.4035944,5.80132033 22.8229932,11.1528265 L20.3735719,11.1528265 C19.9601854,7.13672233 16.4697071,3.98315942 12.2471064,3.98315942 C7.74754347,3.98315942 4.08236892,7.55921605 4.08236892,11.9494583 C4.08236892,16.3396967 7.74753783,19.9157772 12.2471064,19.9157772 C16.473958,19.9157772 19.9659608,16.7680058 20.3735719,12.7460902 L22.8357508,12.7460902 C22.422759,18.103838 17.8458483,22.3057127 12.2471064,22.3057127 C6.3754292,22.3057127 1.63294765,17.6784764 1.63294765,11.9494583 C1.63294765,6.22046023 6.37543283,1.59326377 12.2471064,1.59326377 Z M12.2471064,5.57642319 C15.5847117,5.57642319 18.3116909,8.00593933 18.7151095,11.1528265 L16.2401735,11.1528265 C15.8577908,9.34230126 14.2114548,7.96631884 12.2471064,7.96631884 C10.0021433,7.96631884 8.16473785,9.75907516 8.16473785,11.9494583 C8.16473785,14.1398375 10.0021433,15.9326178 12.2471064,15.9326178 C14.2157351,15.9326178 15.8625085,14.5624906 16.2401735,12.7460902 L18.7151095,12.7460902 C18.3172658,15.8989999 15.5890577,18.3225134 12.2471064,18.3225134 C8.63005647,18.3225134 5.71531657,15.4786173 5.71531657,11.9494583 C5.71531657,8.42027952 8.63005083,5.57642319 12.2471064,5.57642319 Z M12.2471064,9.55958261 C13.3214477,9.55958261 14.2223157,10.2221613 14.5561964,11.1528265 L12.2471064,11.1528265 C12.2216057,11.151659 12.1960629,11.151659 12.1705622,11.1528265 C11.8788169,11.1661049 11.6165017,11.3302587 11.4824542,11.5834364 C11.3484067,11.8366141 11.3629984,12.1403398 11.5207313,12.3801727 C11.6784642,12.6200056 11.9553673,12.7594979 12.2471064,12.7460902 L14.5561964,12.7460902 C14.2244025,13.6805793 13.3242204,14.339354 12.2471064,14.339354 C10.8846765,14.339354 9.79768509,13.2787581 9.79768509,11.9494583 C9.79768509,10.6201386 10.8846765,9.55958261 12.2471064,9.55958261 Z" id="Shape" fill="#3C73AF" fill-rule="nonzero"></path>
    </g>
</svg>