<?xml version="1.0" encoding="UTF-8"?>
<svg width="21px" height="23px" viewBox="0 0 21 23" version="1.1" xmlns="http://www.w3.org/2000/svg" xmlns:xlink="http://www.w3.org/1999/xlink">
    <!-- Generator: Sketch 50.2 (55047) - http://www.bohemiancoding.com/sketch -->
    <title>s2</title>
    <desc>Created with Sketch.</desc>
    <defs></defs>
    <g id="Page-1" stroke="none" stroke-width="1" fill="none" fill-rule="evenodd">
        <g id="Group" fill="#B6B9BC" fill-rule="nonzero">
            <path d="M18.66,2.17567568 L15.75,2.17567568 L15.75,1.02567568 C15.75,0.497297297 15.36,0.0932432432 14.85,0.0932432432 C14.34,0.0932432432 13.95,0.497297297 13.95,1.02567568 L13.95,2.17567568 L7.05,2.17567568 L7.05,1.02567568 C7.05,0.497297297 6.66,0.0932432432 6.15,0.0932432432 C5.64,0.0932432432 5.25,0.497297297 5.25,1.02567568 L5.25,2.17567568 L2.34,2.17567568 C1.17,2.17567568 0.24,3.13918919 0.24,4.35135135 L0.24,20.7310811 C0.24,21.9432432 1.17,22.9067568 2.34,22.9067568 L18.69,22.9067568 C19.86,22.9067568 20.79,21.9432432 20.79,20.7310811 L20.79,4.35135135 C20.76,3.17027027 19.83,2.17567568 18.66,2.17567568 Z M2.34,4.04054054 L5.25,4.04054054 L5.25,5.19054054 C5.25,5.71891892 5.64,6.12297297 6.15,6.12297297 C6.66,6.12297297 7.05,5.71891892 7.05,5.19054054 L7.05,4.04054054 L13.95,4.04054054 L13.95,5.19054054 C13.95,5.71891892 14.34,6.12297297 14.85,6.12297297 C15.36,6.12297297 15.75,5.71891892 15.75,5.19054054 L15.75,4.04054054 L18.66,4.04054054 C18.84,4.04054054 18.96,4.16486486 18.96,4.35135135 L18.96,8.08108108 L2.04,8.08108108 L2.04,4.35135135 C2.04,4.19594595 2.16,4.04054054 2.34,4.04054054 Z M18.66,21.0418919 L2.34,21.0418919 C2.16,21.0418919 2.04,20.9175676 2.04,20.7310811 L2.04,9.94594595 L18.99,9.94594595 L18.99,20.7310811 C18.96,20.9175676 18.84,21.0418919 18.66,21.0418919 Z" id="Shape"></path>
            <path d="M15.57,16.1621622 L5.43,16.1621622 C4.92,16.1621622 4.53,16.5662162 4.53,17.0945946 C4.53,17.622973 4.92,18.027027 5.43,18.027027 L15.54,18.027027 C16.05,18.027027 16.44,17.622973 16.44,17.0945946 C16.44,16.5662162 16.05,16.1621622 15.57,16.1621622 Z" id="Shape"></path>
            <path d="M7.14,14.5148649 L13.89,14.5148649 C14.4,14.5148649 14.79,14.1108108 14.79,13.5824324 C14.79,13.0540541 14.4,12.65 13.89,12.65 L7.14,12.65 C6.63,12.65 6.24,13.0540541 6.24,13.5824324 C6.24,14.1108108 6.63,14.5148649 7.14,14.5148649 Z" id="Shape"></path>
        </g>
    </g>
</svg>