<?xml version="1.0" encoding="UTF-8"?>
<svg width="23px" height="23px" viewBox="0 0 23 23" version="1.1" xmlns="http://www.w3.org/2000/svg" xmlns:xlink="http://www.w3.org/1999/xlink">
    <!-- Generator: Sketch 50.2 (55047) - http://www.bohemiancoding.com/sketch -->
    <title>s3</title>
    <desc>Created with Sketch.</desc>
    <defs></defs>
    <g id="Page-1" stroke="none" stroke-width="1" fill="none" fill-rule="evenodd">
        <g id="Facilities" fill="#FFFFFF" fill-rule="nonzero">
            <path d="M22.6083362,3.77874727 L11.6914473,0.032010552 C11.5674348,-0.010670184 11.4325649,-0.010670184 11.3085524,0.032010552 L0.394586346,3.77874727 C0.158656045,3.85925276 0.000178149691,4.07955321 0,4.32726256 L0,6.50100834 C0,6.8215762 0.261721963,7.0814478 0.584572365,7.0814478 L2.87025031,7.0814478 L2.87025031,17.8456976 L2.27106364,17.8456976 C1.19825348,17.8472958 0.328970145,18.7104334 0.327360524,19.7756588 L0.327360524,22.4195605 C0.327360524,22.7401284 0.589082487,23 0.911932889,23 L22.0939125,23 C22.4167629,23 22.6784849,22.7401284 22.6784849,22.4195605 L22.6784849,19.7756588 C22.6768753,18.7104334 21.8075919,17.8472958 20.7347818,17.8456976 L20.1297494,17.8456976 L20.1297494,7.08435 L22.4154273,7.08435 C22.7382777,7.08435 22.9999997,6.8244784 22.9999997,6.50391054 L22.9999997,4.32726256 C23.0002531,4.08031211 22.8431128,3.86024083 22.6083362,3.77874727 Z M20.7377046,19.0036743 C21.1654814,19.0036743 21.512263,19.3480042 21.512263,19.7727566 L21.512263,21.8362189 L1.49358239,21.8362189 L1.49358239,19.7756588 C1.49358239,19.3509064 1.84036399,19.0065765 2.26814078,19.0065765 L20.7318589,19.0065765 L20.7377046,19.0036743 Z M4.04816363,17.8427954 L4.04816363,7.08435 L5.82526362,7.08435 L5.82526362,17.8456976 L4.04816363,17.8427954 Z M6.99440835,17.8427954 L6.99440835,7.08435 L9.455458,7.08435 L9.455458,17.8456976 L6.99440835,17.8427954 Z M10.618757,17.8427954 L10.618757,7.08435 L12.3783198,7.08435 L12.3783198,17.8456976 L10.618757,17.8427954 Z M13.5650017,17.8427954 L13.5650017,7.08435 L16.0202057,7.08435 L16.0202057,17.8456976 L13.5650017,17.8427954 Z M17.1893504,17.8427954 L17.1893504,7.08435 L18.9664504,7.08435 L18.9664504,17.8456976 L17.1893504,17.8427954 Z M21.8279321,5.92347108 L1.17499045,5.92347108 L1.17499045,4.74227677 L11.5014613,1.19288947 L21.8279321,4.74227677 L21.8279321,5.92347108 Z" id="Shape"></path>
        </g>
    </g>
</svg>