<?xml version="1.0" encoding="UTF-8"?>
<svg width="24px" height="24px" viewBox="0 0 24 24" version="1.1" xmlns="http://www.w3.org/2000/svg" xmlns:xlink="http://www.w3.org/1999/xlink">
    <!-- Generator: Sketch 50.2 (55047) - http://www.bohemiancoding.com/sketch -->
    <title>s4</title>
    <desc>Created with Sketch.</desc>
    <defs></defs>
    <g id="Page-1" stroke="none" stroke-width="1" fill="none" fill-rule="evenodd">
        <g id="Group">
            <rect id="Rectangle-path" x="0" y="0" width="24" height="24"></rect>
            <path d="M8,8 L4,8 C2.8954305,8 2,7.1045695 2,6 L2,2 C2,0.8954305 2.8954305,0 4,0 L8,0 C9.1045695,0 10,0.8954305 10,2 L10,6 C10,7.1045695 9.1045695,8 8,8 Z M4,2 L4,6 L8,6 L8,2 L4,2 Z" id="Shape" fill="#FFFFFF" fill-rule="nonzero"></path>
            <path d="M20,24 L14,24 L14,18 L20,18 L20,24 Z M16,20 L16,22 L18,22 L18,20 L16,20 Z" id="Shape" fill="#FFFFFF" fill-rule="nonzero"></path>
            <path d="M20,16 L14,16 L14,10 L20,10 L20,16 Z M16,12 L16,14 L18,14 L18,12 L16,12 Z" id="Shape" fill="#FFFFFF" fill-rule="nonzero"></path>
            <rect id="Rectangle-path" fill="#FFFFFF" fill-rule="nonzero" x="6" y="6" width="2" height="16"></rect>
            <rect id="Rectangle-path" fill="#FFFFFF" fill-rule="nonzero" x="6" y="12" width="10" height="2"></rect>
            <rect id="Rectangle-path" fill="#FFFFFF" fill-rule="nonzero" x="6" y="20" width="10" height="2"></rect>
        </g>
    </g>
</svg>