<?xml version="1.0" encoding="UTF-8"?>
<svg width="24px" height="24px" viewBox="0 0 24 24" version="1.1" xmlns="http://www.w3.org/2000/svg" xmlns:xlink="http://www.w3.org/1999/xlink">
    <!-- Generator: Sketch 50.2 (55047) - http://www.bohemiancoding.com/sketch -->
    <title>s5</title>
    <desc>Created with Sketch.</desc>
    <defs></defs>
    <g id="Page-1" stroke="none" stroke-width="1" fill="none" fill-rule="evenodd">
        <g id="Time-Filter" fill="#FFFFFF" fill-rule="nonzero">
            <path d="M12,24 C5.383,24 0,18.617 0,12 C0,11.448 0.448,11 1,11 C1.552,11 2,11.448 2,12 C2,17.514 6.486,22 12,22 C17.514,22 22,17.514 22,12 C22,6.486 17.514,2 12,2 C11.448,2 11,1.552 11,1 C11,0.448 11.448,0 12,0 C18.617,0 24,5.383 24,12 C24,18.617 18.617,24 12,24 Z M1,13 C0.74,13 0.48,12.89 0.29,12.71 C0.11,12.52 0,12.26 0,12 C0,11.74 0.11,11.48 0.29,11.29 C0.67,10.92 1.33,10.92 1.71,11.29 C1.89,11.48 2,11.74 2,12 C2,12.26 1.89,12.52 1.71,12.71 C1.52,12.89 1.26,13 1,13 Z M1.45,8.71 C0.94,8.5 0.7,7.92 0.91,7.41 C1.12,6.9 1.71,6.65 2.22,6.86 C2.73,7.07 2.97,7.66 2.76,8.17 C2.6,8.56 2.23,8.79 1.83,8.79 C1.71,8.79 1.58,8.76 1.45,8.71 Z M3.52,4.93 C3.13,4.54 3.13,3.91 3.52,3.52 C3.91,3.13 4.54,3.13 4.93,3.52 C5.32,3.91 5.32,4.54 4.93,4.93 C4.73,5.12 4.48,5.22 4.22,5.22 C3.97,5.22 3.71,5.12 3.52,4.93 Z M6.86,2.22 C6.65,1.71 6.89,1.12 7.4,0.91 C7.91,0.7 8.5,0.94 8.71,1.45 C8.92,1.96 8.68,2.55 8.17,2.76 C8.04,2.81 7.92,2.84 7.79,2.84 C7.4,2.84 7.02,2.6 6.86,2.22 Z M12,2 C11.74,2 11.48,1.89 11.29,1.71 C11.11,1.52 11,1.26 11,1 C11,0.74 11.11,0.48 11.29,0.29 C11.67,-0.08 12.34,-0.08 12.71,0.29 C12.89,0.48 13,0.74 13,1 C13,1.26 12.89,1.52 12.71,1.71 C12.52,1.89 12.26,2 12,2 Z M8.001,15 C7.634,15 7.281,14.798 7.105,14.447 C6.858,13.953 7.058,13.352 7.552,13.105 L11,11.382 L11,5 C11,4.448 11.448,4 12,4 C12.552,4 13,4.448 13,5 L13,12 C13,12.379 12.786,12.725 12.447,12.895 L8.447,14.895 C8.304,14.966 8.151,15 8.001,15 Z" id="Shape"></path>
        </g>
    </g>
</svg>