<?xml version="1.0" encoding="UTF-8"?>
<svg width="24px" height="24px" viewBox="0 0 24 24" version="1.1" xmlns="http://www.w3.org/2000/svg" xmlns:xlink="http://www.w3.org/1999/xlink">
    <!-- Generator: Sketch 50.2 (55047) - http://www.bohemiancoding.com/sketch -->
    <title>s6</title>
    <desc>Created with Sketch.</desc>
    <defs></defs>
    <g id="Page-1" stroke="none" stroke-width="1" fill="none" fill-rule="evenodd">
        <g id="Filter" fill="#FFFFFF" fill-rule="nonzero">
            <path d="M14,24 C13.8,24 13.5,23.9 13.3,23.8 L9.2,20.2 C9,20 8.9,19.7 8.9,19.4 L8.9,11.9 L0.8,1.6 C0.5,1.3 0.5,0.9 0.7,0.6 C0.8,0.2 1.2,0 1.6,0 L22.5,0 C22.9,0 23.2,0.2 23.4,0.6 C23.6,0.9 23.5,1.4 23.3,1.7 L15,12 L15,23 C15,23.4 14.8,23.7 14.4,23.9 C14.3,24 14.2,24 14,24 Z M10.9,19 L13,20.8 L13,11.6 C13,11.3 13.2,11 13.4,10.8 L20.4,2 L3.6,2 L10.7,11 C10.8,11.2 10.9,11.4 10.9,11.6 L10.9,19 Z" id="Shape"></path>
        </g>
    </g>
</svg>