<?xml version="1.0" encoding="UTF-8"?>
<svg width="29px" height="29px" viewBox="0 0 29 29" version="1.1" xmlns="http://www.w3.org/2000/svg" xmlns:xlink="http://www.w3.org/1999/xlink">
    <!-- Generator: Sketch 50.2 (55047) - http://www.bohemiancoding.com/sketch -->
    <title>search2</title>
    <desc>Created with Sketch.</desc>
    <defs></defs>
    <g id="Page-1" stroke="none" stroke-width="1" fill="none" fill-rule="evenodd">
        <path d="M20.7261292,18.2389937 L19.4079474,18.2389937 L18.9519726,17.7830189 C20.5769011,15.9010863 21.5551744,13.4554031 21.5551744,10.7775872 C21.5551744,4.82504288 16.7301315,0 10.7775872,0 C4.82504288,0 0,4.82504288 0,10.7775872 C0,16.7301315 4.82504288,21.5551744 10.7775872,21.5551744 C13.4554031,21.5551744 15.9010863,20.5769011 17.7830189,18.960263 L18.2389937,19.4162379 L18.2389937,20.7261292 L26.5294454,29 L29,26.5294454 L20.7261292,18.2389937 Z M10.7775872,18.2389937 C6.6572327,18.2389937 3.31618067,14.8979417 3.31618067,10.7775872 C3.31618067,6.6572327 6.6572327,3.31618067 10.7775872,3.31618067 C14.8979417,3.31618067 18.2389937,6.6572327 18.2389937,10.7775872 C18.2389937,14.8979417 14.8979417,18.2389937 10.7775872,18.2389937 Z" id="Search" fill="#F5A419" fill-rule="nonzero"></path>
    </g>
</svg>