<?xml version="1.0" encoding="UTF-8"?>
<svg width="39px" height="39px" viewBox="0 0 39 39" version="1.1" xmlns="http://www.w3.org/2000/svg" xmlns:xlink="http://www.w3.org/1999/xlink">
    <!-- Generator: Sketch 50.2 (55047) - http://www.bohemiancoding.com/sketch -->
    <title>search</title>
    <desc>Created with Sketch.</desc>
    <defs></defs>
    <g id="Page-1" stroke="none" stroke-width="1" fill="none" fill-rule="evenodd">
        <g id="Search" fill="#051941" fill-rule="nonzero">
            <path d="M30.5099969,19.3594998 C32.6380542,11.0832858 27.6357786,2.61829483 19.3601755,0.490215662 C11.0829948,-1.63838934 2.61861662,3.36393759 0.490033475,11.6401516 C-1.63802384,19.9168914 3.36372589,28.3808306 11.6403807,30.5099615 C19.9159839,32.6380407 28.3814137,27.6362396 30.5099969,19.3594998 Z M12.6363684,26.6364653 C6.49527108,25.0575946 2.78469003,18.7763884 4.3636151,12.6360381 C5.94307577,6.49568781 12.223427,2.78469894 18.3634532,4.36356966 C24.5045505,5.94244037 28.2156671,12.2231109 26.6362065,18.3634613 C25.0567458,24.5038116 18.7774657,28.215336 12.6363684,26.6364653 Z M38.3738893,37.3516198 C38.3749262,37.3510964 38.3754447,37.3505731 38.3759632,37.3505731 C38.369223,37.3599935 38.360409,37.3699373 38.3531503,37.3788343 C38.3469287,37.3877314 38.3412255,37.3950584 38.3350038,37.4039555 C38.3339668,37.4044789 38.3334484,37.4044789 38.3324114,37.4055256 C38.2541219,37.5018233 38.154575,37.6206254 38.0762855,37.7012224 L37.7600166,38.0267507 C36.842837,38.9708872 35.6404968,39.2817615 35.0732868,38.7207225 L26,29.7446215 C26.4899575,29.3348327 27.1375309,28.7371587 27.4325424,28.4634428 L27.4315054,28.4629194 C28.252249,27.7134718 28.5389649,27.2759451 28.6981363,27.1236481 C29.0154421,26.8211476 29.4810313,26.168521 29.6360549,26 L38.7093417,34.9755776 C39.2081132,35.4701503 39.044794,36.4744729 38.3738893,37.3516198 Z M11.6555536,8.55878023 C9.51629375,10.1435971 7.94500449,13.123999 8.59658499,15.9509127 C8.8344407,16.9806495 7.43805949,17.4542548 7.20068429,16.4266206 C6.35785819,12.7712918 8.27800249,9.1107065 10.9371813,7.14006689 C11.7319558,6.55134554 12.447445,7.97216145 11.6555536,8.55878023 Z" id="Shape"></path>
        </g>
    </g>
</svg>