<?xml version="1.0" encoding="UTF-8"?>
<svg width="84px" height="91px" viewBox="0 0 84 91" version="1.1" xmlns="http://www.w3.org/2000/svg" xmlns:xlink="http://www.w3.org/1999/xlink">
    <!-- Generator: Sketch 51.3 (57544) - http://www.bohemiancoding.com/sketch -->
    <title>Icon</title>
    <desc>Created with Sketch.</desc>
    <defs></defs>
    <g id="Page-1" stroke="none" stroke-width="1" fill="none" fill-rule="evenodd">
        <g id="Subscription" transform="translate(-816.000000, -206.000000)" fill="#03492F" fill-rule="nonzero">
            <g id="Header" transform="translate(502.000000, 172.000000)">
                <g id="Icon" transform="translate(314.116456, 33.853659)">
                    <g id="Group">
                        <g id="Sub" transform="translate(0.286076, 0.146341)">
                            <g id="Group">
                                <path d="M83.3333333,8.33333333 L83.3333333,100 L0,100 L0,8.33333333 L12.5,8.33333333 C17.625,8.33333333 21.5875,3.81666667 25,0 L58.3333333,0 C61.75,3.81666667 65.7125,8.33333333 70.8333333,8.33333333 L83.3333333,8.33333333 Z M37.5,12.5 C37.5,14.8 39.3666667,16.6666667 41.6666667,16.6666667 C43.9708333,16.6666667 45.8333333,14.8 45.8333333,12.5 C45.8333333,10.2 43.9708333,8.33333333 41.6666667,8.33333333 C39.3666667,8.33333333 37.5,10.2 37.5,12.5 Z M75,16.6666667 L58.3333333,16.6666667 L50,25 L33.7625,25 L25,16.6666667 L8.33333333,16.6666667 L8.33333333,91.6666667 L75,91.6666667 L75,16.6666667 Z M20.8333333,57.2041667 L24.3958333,53.9083333 C28.5625,55.925 31.2083333,57.4583333 35.8958333,60.8 C44.7,50.8041667 50.525,45.7333333 61.3375,39.0041667 L62.5,41.6708333 C53.5791667,49.4583333 47.0458333,58.125 37.6375,75 C31.8333333,68.1666667 27.9625,63.8083333 20.8333333,57.2041667 Z" id="Shape" style="mix-blend-mode: multiply;"></path>
                            </g>
                        </g>
                    </g>
                </g>
            </g>
        </g>
    </g>
</svg>