<?xml version="1.0" encoding="UTF-8"?>
<svg width="87px" height="119px" viewBox="0 0 87 119" version="1.1" xmlns="http://www.w3.org/2000/svg" xmlns:xlink="http://www.w3.org/1999/xlink">
    <!-- Generator: Sketch 50.2 (55047) - http://www.bohemiancoding.com/sketch -->
    <title>use2</title>
    <desc>Created with Sketch.</desc>
    <defs></defs>
    <g id="Page-1" stroke="none" stroke-width="1" fill="none" fill-rule="evenodd" fill-opacity="0.730015851">
        <path d="M66.0953166,34 L24.8877427,34 L24.8877427,23.4761905 C24.8877427,15.3809524 31.4156752,8.5 39.9835866,8.5 L45.2875318,8.5 C51.4074685,8.5 56.7114136,12.1428571 59.1593883,17.4047619 C59.9753799,19.4285714 62.4233546,20.2380952 64.4633335,19.4285714 C66.5033124,18.6190476 67.319304,16.1904762 66.5033124,14.1666667 C62.8313504,5.66666667 54.6714347,0 45.2875318,0 L39.9835866,0 C27.3357174,0 16.727827,10.1190476 16.727827,23.0714286 L16.727827,34 C7.34392407,35.6190476 0,44.1190476 0,53.8333333 L0,98.7619048 C0,110.095238 8.97590719,119 20.3997891,119 L65.6873208,119 C77.1112027,119 86.0871099,110.095238 86.0871099,98.7619048 L86.0871099,54.2380952 C86.4951057,42.9047619 77.1112027,34 66.0953166,34 Z M78.3351901,99.1666667 C78.3351901,106.047619 73.0312449,111.309524 66.0953166,111.309524 L20.3997891,111.309524 C13.4638608,111.309524 8.15991563,106.047619 8.15991563,99.1666667 L8.15991563,54.2380952 C8.15991563,47.3571429 13.4638608,42.0952381 20.3997891,42.0952381 L65.6873208,42.0952381 C72.6232491,42.0952381 77.9271943,47.3571429 77.9271943,54.2380952 L77.9271943,99.1666667 L78.3351901,99.1666667 Z M49.3674896,70.0238095 C49.3674896,71.6428571 48.551498,73.2619048 47.3275107,74.4761905 L47.3275107,83.7857143 C47.3275107,86.2142857 45.6955275,87.8333333 43.2475528,87.8333333 C40.7995782,87.8333333 39.167595,86.2142857 39.167595,83.7857143 L39.167595,74.4761905 C37.9436077,73.2619048 37.1276161,71.6428571 37.1276161,70.0238095 C37.1276161,66.7857143 39.9835866,63.952381 43.2475528,63.952381 C46.5115191,63.952381 49.3674896,66.7857143 49.3674896,70.0238095 Z" id="Shape" fill="#116c91" fill-rule="nonzero" style="mix-blend-mode: multiply;"></path>
    </g>
</svg>