<?xml version="1.0" encoding="UTF-8"?>
<svg width="38px" height="42px" viewBox="0 0 38 42" version="1.1" xmlns="http://www.w3.org/2000/svg" xmlns:xlink="http://www.w3.org/1999/xlink">
    <!-- Generator: Sketch 50.2 (55047) - http://www.bohemiancoding.com/sketch -->
    <title>user</title>
    <desc>Created with Sketch.</desc>
    <defs></defs>
    <g id="Page-1" stroke="none" stroke-width="1" fill="none" fill-rule="evenodd">
        <g id="Profile" transform="translate(1.000000, 1.000000)" fill="#051940" fill-rule="nonzero" stroke="#051941">
            <path d="M9.47902165,38.7729872 C15.4308657,40.3900603 21.2526009,40.4082891 26.9455027,38.8306138 C33.1479978,37.0918193 36.1634627,34.8132163 35.9931731,31.994805 L35.9931731,28.8676797 C35.9931731,28.8047609 35.9855196,28.741254 35.9734017,28.6771591 C35.8126789,27.8157002 35.4542417,27.0624382 34.8980899,26.416785 C34.396788,25.8469873 33.7532592,25.3577491 32.9521966,24.9478946 C32.1173312,24.5203993 30.6038587,24.0658548 28.4028499,23.5754406 C26.6457421,23.1785227 25.408432,22.7774886 24.7011243,22.3835108 C24.6188496,22.3376447 24.5352993,22.2870744 24.4530245,22.2317999 C24.1774998,22.0418673 23.8713612,21.968952 23.533971,22.013054 C23.1953052,22.0577441 22.9223317,22.2071028 22.7156881,22.4605423 C22.5103202,22.7145697 22.4305966,22.9968225 22.477793,23.3090646 C22.5275405,23.6201306 22.6908144,23.871806 22.9650635,24.0623266 C23.1021881,24.158763 23.2405882,24.248143 23.3783506,24.3287027 C24.2157671,24.8249971 25.6954369,25.3142352 27.8141709,25.797593 C29.7326393,26.2321447 31.0458462,26.616714 31.7646341,26.9601215 C32.2499913,27.2023885 32.6537115,27.501106 32.9636768,27.8462776 C33.2302725,28.1679281 33.415869,28.5401489 33.5115373,28.962352 L33.5115373,31.994217 C33.3508146,33.7729973 30.9202019,35.3212713 26.2216126,36.6366867 C20.9936587,38.0838201 15.6477139,38.0644152 10.1825026,36.5802362 C5.22241993,35.2354194 2.65659603,33.7065503 2.48885761,31.994217 L2.48885761,28.962352 C2.69422556,28.1032452 3.27716443,27.4323069 4.23576083,26.9501251 C4.95518647,26.616126 6.26839339,26.2315566 8.17601936,25.8064134 C10.3068714,25.3136472 11.7852656,24.8244091 12.6233199,24.3281146 C12.7604445,24.247555 12.8988446,24.158175 13.036607,24.0617386 C13.3102183,23.871218 13.4728544,23.6195426 13.5219642,23.3084766 C13.5704361,22.9962345 13.4913503,22.7133937 13.2847068,22.4599542 C13.0780632,22.2065148 12.8050897,22.057156 12.4683372,22.012466 C12.1296715,21.968364 11.8235329,22.0412793 11.5473704,22.2312119 C11.4650956,22.2864864 11.3821831,22.3370567 11.2986328,22.3829228 C10.5919629,22.7769006 9.35529065,23.1779347 7.58670261,23.5854371 C5.39653625,24.0652668 3.88306368,24.5198113 3.05840291,24.9390742 C1.32042872,25.8211141 0.310809227,27.0642022 0.027631048,28.6765711 C0.0142374855,28.740666 0.00849738731,28.8041729 0.00722180993,28.8670917 L0.00722180993,31.994217 C-0.171996812,34.7532376 2.98441942,37.0124357 9.47902165,38.7729872 Z" id="Shape"></path>
            <path d="M11.7808008,18.0323116 C11.7839342,18.041413 11.7870676,18.0524646 11.7908276,18.0641664 C11.9224291,18.5055825 12.1229647,18.9164441 12.3899277,19.2967511 L12.4099813,19.3175542 C13.5210738,20.8303309 15.0282242,21.7014614 16.9314324,21.932246 L16.9420859,21.932246 C19.5026748,22.245593 21.6634459,21.471977 23.4243992,19.6133485 L23.4344259,19.6022969 C23.8875111,19.136177 24.1958346,18.5523896 24.3600231,17.8528847 L24.3600231,17.8314315 C24.9196427,15.2563957 25.4178484,12.6878608 25.8533866,10.126477 C26.2951916,7.5338885 25.7380787,5.21044035 24.1876878,3.15873292 C22.7212712,1.22209272 20.7704358,0.174785793 18.3345549,0.0174622192 L18.3245282,0.0174622192 C16.2765583,-0.117758043 14.4548177,0.53233937 12.8586797,1.96775446 C12.8492796,1.97815602 12.8392528,1.98920767 12.827346,1.99895913 C10.5631737,4.18003595 9.6588835,6.87533982 10.1144753,10.0842207 L10.1144753,10.0946222 C10.503013,12.8055284 11.058246,15.4514249 11.7808008,18.0323116 Z M14.4623378,3.88749212 C15.5458567,2.90844541 16.7822841,2.46247859 18.1703664,2.54829145 L18.1816465,2.54829145 C19.8868258,2.64645616 21.2510946,3.37066467 22.2757062,4.7196168 C23.3799053,6.18103579 23.7728298,7.8361838 23.4544795,9.68441074 C23.023328,12.2113394 22.5326424,14.7441189 21.9805428,17.2840495 L21.9805428,17.2632464 C21.9291556,17.4855797 21.8351545,17.6721577 21.6966596,17.8216801 L21.6866328,17.8320816 C20.4715124,19.1108232 18.9819089,19.6413027 17.2153156,19.4241702 L17.2052888,19.4241702 C15.9970618,19.2863495 15.042011,18.7383174 14.3401364,17.7800738 L14.36019,17.8008769 C14.2561622,17.6565553 14.1734412,17.5018321 14.1164139,17.3367074 C14.1132805,17.3263058 14.1088938,17.3159043 14.1057605,17.3048526 C13.4233127,14.8364327 12.8981601,12.3069037 12.5303026,9.71561542 C12.2056856,7.40711951 12.8499063,5.46332824 14.4623378,3.88749212 Z" id="Shape"></path>
        </g>
    </g>
</svg>