<?xml version="1.0" encoding="UTF-8"?>
<svg width="101px" height="106px" viewBox="0 0 101 106" version="1.1" xmlns="http://www.w3.org/2000/svg" xmlns:xlink="http://www.w3.org/1999/xlink">
    <!-- Generator: Sketch 50.2 (55047) - http://www.bohemiancoding.com/sketch -->
    <title>user3</title>
    <desc>Created with Sketch.</desc>
    <defs></defs>
    <g id="Page-1" stroke="none" stroke-width="1" fill="none" fill-rule="evenodd">
        <g id="Icon" fill="#186c57" fill-rule="nonzero">
            <g id="Group">
                <g id="Sub" transform="translate(0.286076, 0.146341)">
                    <g id="Group">
                        <path d="M2.05598807,0.429886517 C0.886825176,0.544488871 -0.00504219741,1.56802376 2.14542075e-05,2.78937809 L2.14542075e-05,101.887989 C0.000115409344,103.191069 1.01576167,104.247409 2.26867427,104.247539 L97.5520927,104.247539 C98.8050053,104.247409 99.8206515,103.191069 99.8207455,101.887989 L99.8207455,2.78937809 C99.8206202,1.48632085 98.8049831,0.430016803 97.5520927,0.429886517 L2.26867427,0.429886517 C2.19781785,0.426428676 2.12684449,0.426428676 2.05598807,0.429886517 Z M4.53732709,5.14886966 L95.2834398,5.14886966 L95.2834398,99.5285562 L4.53732709,99.5285562 L4.53732709,5.14886966 Z M22.6865496,9.86785281 C15.1957666,9.86785281 9.07463273,16.2340736 9.07463273,24.0248022 C9.07463273,31.8155191 15.1957666,38.1817517 22.6865496,38.1817517 C30.1773327,38.1817517 36.2984666,31.8155191 36.2984666,24.0248022 C36.2984666,16.2340736 30.1773327,9.86785281 22.6865496,9.86785281 Z M40.623086,9.86785281 C39.8123964,9.90711541 39.0834587,10.3933003 38.7109552,11.1432007 C38.3384517,11.8931011 38.3789988,12.7927404 38.8173172,13.5031116 C39.2556357,14.2134829 40.025106,14.6266176 40.8357722,14.586836 L88.4774814,14.586836 C89.2956392,14.5988702 90.0566486,14.1518042 90.4691042,13.4168283 C90.8815598,12.6818524 90.8815598,11.7728364 90.4691042,11.0378605 C90.0566486,10.3028846 89.2956392,9.85581857 88.4774814,9.86785281 L40.8357722,9.86785281 C40.7649158,9.86439497 40.6939424,9.86439497 40.623086,9.86785281 Z M22.6865496,14.586836 C27.7251901,14.586836 31.7611609,18.7844056 31.7611609,24.0248022 C31.7611609,29.2651989 27.7251901,33.4627685 22.6865496,33.4627685 C17.6479092,33.4627685 13.6119384,29.2651989 13.6119384,24.0248022 C13.6119384,18.7844056 17.6479092,14.586836 22.6865496,14.586836 Z M40.623086,21.6653107 C39.8123964,21.7045733 39.0834587,22.1907582 38.7109552,22.9406586 C38.3384517,23.6905589 38.3789988,24.5901983 38.8173172,25.3005695 C39.2556357,26.0109408 40.025106,26.4240754 40.8357722,26.3842938 L88.4774814,26.3842938 C89.2956392,26.3963281 90.0566486,25.949262 90.4691042,25.2142861 C90.8815598,24.4793102 90.8815598,23.5702943 90.4691042,22.8353184 C90.0566486,22.1003424 89.2956392,21.6532764 88.4774814,21.6653107 L40.8357722,21.6653107 C40.7649158,21.6618528 40.6939424,21.6618528 40.623086,21.6653107 Z M40.623086,33.4627685 C39.8123964,33.5020311 39.0834587,33.9882161 38.7109552,34.7381164 C38.3384517,35.4880168 38.3789988,36.3876561 38.8173172,37.0980274 C39.2556357,37.8083986 40.025106,38.2215333 40.8357722,38.1817517 L88.4774814,38.1817517 C89.2956392,38.1937859 90.0566486,37.7467199 90.4691042,37.011744 C90.8815598,36.2767681 90.8815598,35.3677521 90.4691042,34.6327762 C90.0566486,33.8978003 89.2956392,33.4507343 88.4774814,33.4627685 L40.8357722,33.4627685 C40.7649158,33.4593107 40.6939424,33.4593107 40.623086,33.4627685 Z M11.1305993,42.9007348 C9.96143645,43.0153372 9.06956908,44.0388721 9.07463273,45.2602264 L9.07463273,92.4500225 C9.07472668,93.7531028 10.0903729,94.8094427 11.3432855,94.809573 L88.4774814,94.809573 C89.730394,94.8094427 90.7460402,93.7531028 90.7461342,92.4500225 L90.7461342,45.2602264 C90.7460089,43.9571692 89.7303718,42.9008651 88.4774814,42.9007348 L11.3432855,42.9007348 C11.2724291,42.897277 11.2014558,42.897277 11.1305993,42.9007348 Z M13.6119384,47.619718 L86.2088286,47.619718 L86.2088286,90.0905899 L13.6119384,90.0905899 L13.6119384,47.619718 Z M64.5502837,54.6613483 C63.9650694,54.7047329 63.4187653,54.9822012 63.0260326,55.4355169 L43.3880066,76.9659438 L37.0074206,67.4910506 C36.5946602,66.6864753 35.7730935,66.2012766 34.8972664,66.2448414 C34.0214393,66.2884062 33.2481444,66.8529354 32.911096,67.6948072 C32.5740476,68.536679 32.7335849,69.5051796 33.3208597,70.1823539 L41.2611446,81.9798708 C41.6487365,82.5523367 42.2607443,82.9162311 42.9317129,82.9731758 C43.6026814,83.0301206 44.2633175,82.7742347 44.7350192,82.2746966 L66.287221,58.6797809 C66.9489084,57.9864799 67.1314517,56.9408249 66.7463357,56.0498528 C66.3612197,55.1588807 65.488073,54.6068136 64.5502837,54.6613483 Z" id="Shape" style="mix-blend-mode: multiply;"></path>
                    </g>
                </g>
            </g>
        </g>
    </g>
</svg>