<?xml version="1.0" encoding="UTF-8"?>
<svg width="100px" height="121px" viewBox="0 0 100 121" version="1.1" xmlns="http://www.w3.org/2000/svg" xmlns:xlink="http://www.w3.org/1999/xlink">
    <!-- Generator: Sketch 50.2 (55047) - http://www.bohemiancoding.com/sketch -->
    <title>user1</title>
    <desc>Created with Sketch.</desc>
    <defs></defs>
    <g id="Page-1" stroke="none" stroke-width="1" fill="none" fill-rule="evenodd">
        <path d="M99.7084615,110.172298 C99.5455477,109.224058 99.3762287,108.276917 99.2007831,107.328402 C97.1884498,96.5019748 93.8989838,79.2888073 81.3432045,69.9823125 C82.2694459,63.9207225 82.7437061,54.4979652 82.7437061,40.4821531 C82.7437061,18.1078113 68.0427561,0 49.9206166,0 C37.5628402,0 29.7048261,8.64272681 29.7048261,8.64272681 C22.0501061,16.0640105 17.0975271,27.5506329 17.0975271,40.5264043 C17.0975271,54.502088 17.5929521,63.9278686 18.4952438,69.9669207 C5.88265359,79.1810652 2.65417581,96.5335828 0.640171561,107.366607 C0.465282917,108.312648 0.295963976,109.260338 0.133050191,110.206929 C-0.728304227,115.209788 2.68285978,119.953462 7.75101013,120.80358 C8.27901789,120.892082 8.80284836,120.934959 9.32110914,120.934959 L41.8994102,120.926714 L41.9002457,120.920392 L90.5195671,120.898954 C91.0372709,120.898954 91.5619368,120.856901 92.0891091,120.7673 C97.1578164,119.918006 100.569259,115.175157 99.7084615,110.172298 Z M49.4392688,89.4308943 L32.2404347,80.8573245 L41.1614029,67.096726 C43.5799543,68.3037295 46.7664097,68.9881856 49.4298603,68.9881856 C52.104103,68.9881856 55.2352139,68.290192 57.6623438,67.0731707 L66.5608974,80.8608442 L49.4392688,89.4308943 Z M50.4738059,63.0081301 C33.9512323,63.0081301 26.8375714,40.8347885 28.2569521,33.9111768 C46.4209464,18.2426063 62.5025121,19.3248881 62.5025121,19.3248881 C62.5025121,19.3248881 65.3856814,28.2055822 72.8009816,38.9206428 C71.4977879,49.4819623 60.7091546,63.0081301 50.4738059,63.0081301 Z" id="Shape" fill="#70B029" fill-rule="nonzero" style="mix-blend-mode: multiply;"></path>
    </g>
</svg>